<svg class="img-fluid" id="outputsvg" xmlns="http://www.w3.org/2000/svg" style="transform: none; transform-origin: 50% 50%; cursor: move;" width="380" height="443" viewBox="0 0 3800 4430"><g id="l13eXOcPQu50N1dVu3Irh3r" fill="rgb(105,114,216)" style="transform: none;"><g style="transform: none;"><path id="p5uOXB8a5" d="M2340 4312 c0 -52 14 -92 30 -92 10 0 20 -8 22 -17 3 -11 36 -32 84 -52 85 -36 179 -82 258 -125 28 -14 54 -25 59 -23 12 4 -61 79 -128 133 -83 66 -168 118 -297 180 -25 12 -28 11 -28 -4z"></path><path id="pD5u3mtJj" d="M2450 4035 c0 -16 6 -25 15 -25 8 0 15 -3 15 -7 0 -11 58 -43 76 -43 7 0 16 -11 20 -25 6 -23 11 -25 60 -25 30 0 54 3 54 8 0 4 -19 18 -43 32 -23 14 -51 31 -62 37 -72 43 -125 73 -130 73 -3 0 -5 -11 -5 -25z"></path><path id="pRFnczJ59" d="M2550 3377 c-19 -9 -26 -22 -28 -48 -4 -51 17 -69 79 -69 43 0 49 3 49 21 0 13 -10 23 -30 30 -53 19 -35 35 33 30 23 -2 27 2 27 23 0 25 -3 26 -52 26 -29 0 -64 -6 -78 -13z"></path><path id="p1Gt7P1p6u" d="M2366 2914 c-3 -9 -6 -29 -6 -45 0 -16 -9 -47 -20 -69 -11 -22 -20 -46 -20 -53 0 -14 -46 -115 -75 -166 -25 -44 -88 -103 -164 -152 -42 -27 -81 -49 -88 -49 -28 0 -83 -35 -83 -52 0 -23 36 -24 76 -3 16 8 36 15 45 15 9 0 27 8 40 18 13 10 37 24 54 32 65 33 149 125 192 211 50 102 83 187 83 216 0 32 10 53 27 53 14 0 63 -92 63 -121 0 -43 86 -88 170 -89 50 0 235 -67 273 -98 16 -14 17 -12 17 24 0 33 -5 43 -33 62 -18 12 -45 22 -59 22 -15 0 -34 8 -43 17 -13 12 -39 18 -104 20 -64 3 -97 9 -128 26 -38 19 -43 26 -49 67 -6 43 -37 107 -58 122 -6 4 -32 8 -57 8 -34 0 -49 -5 -53 -16z"></path><path id="pYo7Yit4k" d="M1289 2892 c-26 -27 -39 -58 -39 -91 0 -46 22 -37 49 20 27 59 51 62 64 9 15 -63 50 -164 69 -200 10 -19 18 -38 18 -42 0 -14 59 -94 92 -123 78 -72 208 -141 286 -152 27 -4 32 -2 32 14 0 15 -14 24 -57 39 -32 10 -70 26 -85 36 -14 10 -29 18 -32 18 -3 0 -26 15 -53 32 -54 37 -97 83 -132 142 -14 23 -27 43 -31 46 -3 3 -14 31 -25 63 -11 31 -22 57 -26 57 -4 0 -11 26 -15 58 -3 31 -11 65 -16 75 -12 23 -77 22 -99 -1z"></path><path id="pr7XwpZI0" d="M1303 2301 c-50 -9 -80 -33 -100 -81 -17 -39 -67 -90 -89 -90 -8 0 -14 -7 -14 -15 0 -10 11 -15 35 -15 26 0 42 8 70 37 19 20 35 44 35 53 0 9 14 29 31 46 29 27 35 29 105 27 80 -2 135 -25 190 -80 32 -32 74 -109 74 -135 0 -11 5 -29 11 -40 6 -11 19 -49 29 -84 l17 -64 -101 8 c-55 4 -126 7 -156 6 -68 -1 -259 -31 -274 -43 -6 -5 -31 -12 -56 -16 -86 -13 -150 -37 -150 -57 0 -22 16 -23 72 -4 24 8 72 22 108 30 36 8 85 20 110 27 48 14 415 19 460 7 14 -4 32 -3 40 2 15 9 17 3 -65 252 -12 36 -29 77 -37 90 -22 33 -73 88 -82 88 -4 0 -19 9 -34 19 -24 17 -49 23 -157 36 -16 1 -49 0 -72 -4z"></path><path id="pKVjjs7VP" d="M2290 2297 c-63 -17 -125 -60 -163 -113 -37 -53 -130 -328 -121 -357 5 -16 12 -18 52 -12 26 3 124 6 217 6 139 1 184 -3 245 -19 41 -11 90 -22 108 -26 30 -5 32 -4 32 24 0 22 -5 30 -18 30 -10 0 -23 5 -28 10 -6 6 -48 15 -95 21 -46 6 -96 17 -111 25 -40 21 -144 17 -289 -11 l-36 -7 11 54 c6 30 16 61 23 69 7 8 15 34 19 57 3 22 15 49 25 58 11 9 19 22 19 29 0 15 45 56 91 83 29 18 52 22 116 22 70 0 82 -3 101 -23 12 -13 22 -33 22 -44 0 -12 14 -30 35 -44 19 -13 35 -27 35 -31 0 -5 18 -8 40 -8 36 0 40 3 40 25 0 15 -6 25 -14 25 -24 0 -74 49 -81 79 -7 33 -38 65 -78 80 -36 14 -139 12 -197 -2z"></path><path id="pUJoSDJXf" d="M915 2145 c-16 -9 -45 -32 -63 -53 l-32 -37 26 -3 c18 -3 34 5 56 28 32 34 43 36 121 24 65 -9 64 15 -2 39 -59 21 -68 21 -106 2z"></path><path id="p57kV0uik" d="M2830 2126 c0 -35 1 -36 36 -36 45 0 43 22 -3 51 l-33 21 0 -36z"></path><path id="pzx8VEzYt" d="M2293 2104 c-20 -5 -23 -12 -23 -59 0 -45 4 -55 25 -69 13 -9 33 -16 43 -16 11 0 25 -6 31 -14 7 -8 30 -17 52 -21 21 -4 39 -10 39 -14 0 -10 70 -31 104 -31 19 0 26 5 26 20 0 11 -8 23 -17 26 -10 3 -36 14 -58 24 -22 10 -51 23 -65 30 -63 28 -100 51 -100 60 0 14 50 12 117 -5 31 -8 70 -15 85 -15 23 0 28 4 28 25 0 16 -6 25 -15 25 -9 0 -27 7 -40 16 -24 16 -185 28 -232 18z"></path><path id="pgzrAta1Q" d="M1270 2080 c-25 -10 -77 -21 -115 -25 -39 -4 -95 -13 -126 -21 -31 -8 -71 -14 -88 -14 -24 0 -31 -4 -31 -20 0 -25 26 -26 125 -5 39 8 108 20 155 25 47 6 106 18 132 26 51 17 112 11 105 -9 -2 -7 -17 -16 -33 -22 -16 -5 -37 -18 -46 -27 -10 -10 -25 -18 -33 -18 -13 0 -38 -10 -140 -56 -37 -16 -108 -42 -155 -55 -156 -45 -180 -54 -180 -66 0 -19 47 -16 120 7 34 11 70 20 79 20 14 0 47 11 171 60 69 27 151 61 195 81 22 10 48 20 58 23 13 4 17 16 17 54 0 47 -1 50 -31 56 -56 11 -133 5 -179 -14z"></path><path id="p1H66eQtGo" d="M778 2016 c-36 -26 -16 -51 32 -41 33 7 41 35 11 35 -11 0 -21 4 -23 9 -1 5 -11 4 -20 -3z"></path><path id="p1FqrutfvL" d="M560 1875 c0 -28 4 -35 20 -35 21 0 24 10 14 48 -10 36 -34 27 -34 -13z"></path><path id="p617i69B5" d="M593 1755 c-3 -9 -3 -51 -1 -93 5 -69 20 -120 59 -192 4 -8 23 -44 41 -80 18 -36 36 -67 39 -70 3 -3 20 -34 38 -70 63 -126 72 -138 157 -208 30 -24 62 -42 76 -42 14 0 35 -9 48 -20 16 -14 37 -20 69 -20 24 0 97 -5 160 -11 85 -9 116 -9 119 0 2 6 12 11 23 11 10 0 19 7 19 15 0 16 -27 22 -147 29 -106 7 -245 41 -300 73 -64 37 -130 116 -203 241 -100 172 -150 276 -161 338 -14 74 -3 88 63 80 44 -6 48 -5 48 14 0 18 -6 20 -70 20 -55 0 -72 -4 -77 -15z"></path><path id="pIM7YbGwJ" d="M870 1750 c0 -21 16 -25 58 -14 39 11 27 34 -18 34 -33 0 -40 -3 -40 -20z"></path><path id="pPWc9GTWt" d="M1048 1610 c-65 -8 -111 -53 -138 -134 -20 -61 -20 -61 0 -129 33 -117 115 -193 233 -217 29 -5 77 -17 107 -25 30 -8 67 -15 82 -15 14 0 57 -6 95 -14 37 -8 98 -17 136 -21 l67 -7 0 26 c0 20 -5 26 -22 26 -13 0 -43 9 -67 20 -32 15 -65 20 -126 20 -61 0 -94 5 -126 20 -24 11 -64 20 -89 20 -28 0 -56 8 -75 20 -16 11 -37 20 -45 20 -28 0 -108 92 -120 139 -18 67 1 131 53 177 l40 37 191 -7 c120 -4 212 -12 246 -21 73 -20 367 -34 505 -24 61 4 129 8 153 8 41 1 42 2 42 36 l0 35 -82 -7 c-122 -12 -357 -10 -573 4 -235 16 -425 21 -487 13z"></path><path id="pHgQg8I9F" d="M850 547 c0 -13 90 -47 123 -47 10 0 17 8 17 18 0 13 -13 21 -45 30 -59 16 -95 15 -95 -1z"></path><path id="pRyZRNW8W" d="M1020 516 c0 -17 5 -21 43 -30 24 -6 27 -4 27 19 0 22 -4 25 -35 25 -24 0 -35 -5 -35 -14z"></path><path id="p1BRzINpep" d="M870 412 c0 -16 13 -21 83 -31 45 -7 148 -15 230 -18 145 -6 147 -6 147 16 0 19 -6 21 -67 22 -155 3 -235 8 -289 18 -84 16 -104 14 -104 -7z"></path><path id="p7EywJrcS" d="M750 277 c0 -11 12 -18 38 -22 20 -3 52 -13 70 -21 44 -19 62 -18 62 4 0 24 -34 39 -109 48 -52 6 -61 4 -61 -9z"></path><path id="psI96oJRN" d="M940 227 c0 -7 32 -23 73 -36 39 -13 97 -32 127 -42 30 -10 70 -21 88 -24 17 -4 32 -10 32 -15 0 -4 7 -10 15 -14 11 -4 15 2 15 28 0 33 -1 33 -56 40 -31 3 -62 13 -71 21 -8 8 -25 15 -38 15 -13 0 -47 9 -75 20 -58 23 -110 26 -110 7z"></path></g></g><g id="l1xLSi2jw2UkZPqyG1lSvPI" fill="rgb(38,186,228)" style="transform: none;"><g style="transform: none;"><path id="p1493zmPCl" d="M1579 4380 c-53 -16 -247 -119 -329 -175 -71 -48 -167 -125 -316 -250 -32 -28 -30 -35 11 -35 24 0 39 6 47 20 7 11 17 20 22 20 5 0 22 12 37 28 48 45 65 58 100 78 18 11 42 27 53 37 11 10 35 26 53 37 33 19 33 19 33 0 0 -11 -4 -20 -10 -20 -5 0 -10 -6 -10 -14 0 -8 -9 -18 -20 -21 -11 -3 -20 -13 -20 -20 0 -8 -17 -23 -37 -34 -67 -33 -114 -59 -126 -69 -7 -5 -32 -20 -57 -33 -25 -13 -47 -26 -50 -29 -18 -18 -109 -58 -112 -49 -4 12 -128 -115 -128 -131 0 -12 37 -14 42 -2 3 9 96 72 104 72 3 0 18 8 32 19 111 78 378 200 492 225 52 11 55 14 70 56 9 25 22 46 31 48 14 2 30 26 45 65 3 9 10 17 15 17 5 0 9 7 9 16 0 8 14 20 30 25 17 6 30 17 30 25 0 8 7 14 15 14 8 0 15 5 15 10 0 6 9 10 20 10 16 0 20 7 20 35 0 35 0 35 -42 34 -24 0 -55 -4 -69 -9z"></path><path id="p1HjRb0u5o" d="M885 3652 c-138 -107 -310 -294 -371 -402 -29 -50 -30 -66 -6 -79 18 -10 26 -7 212 60 30 11 72 25 93 31 36 10 37 12 37 57 0 64 21 135 48 165 12 15 22 33 22 41 0 8 5 15 11 15 5 0 15 14 20 30 6 17 17 30 25 30 15 0 18 37 8 78 -9 32 -31 26 -99 -26z m-155 -235 c0 -1 -9 -27 -20 -57 -11 -30 -20 -56 -20 -57 0 -2 -11 -3 -25 -3 -17 0 -25 -5 -25 -18 0 -11 -14 -25 -35 -35 -44 -21 -46 -21 -39 -2 4 8 12 15 20 15 8 0 14 6 14 13 0 6 25 39 55 72 30 33 55 63 55 68 0 4 5 7 10 7 6 0 10 -1 10 -3z"></path><path id="pLylkMdor" d="M575 3029 c-277 -138 -421 -229 -524 -331 -65 -64 -52 -74 41 -30 35 16 74 33 88 37 14 4 41 16 60 26 19 11 42 19 50 19 8 0 24 7 34 15 26 20 76 20 76 0 0 -8 -9 -19 -21 -26 -31 -16 -115 -103 -144 -149 -14 -22 -37 -70 -51 -107 -25 -66 -25 -74 -21 -238 3 -144 14 -250 43 -442 4 -29 9 -33 34 -33 25 0 30 4 30 25 0 16 6 25 15 25 10 0 15 11 15 35 0 19 -4 35 -10 35 -5 0 -10 20 -10 45 0 32 4 45 14 45 12 0 15 19 15 91 0 109 8 121 84 112 l47 -6 0 51 c0 31 -5 52 -12 55 -8 3 -6 6 5 6 14 1 17 11 17 65 0 36 4 67 9 70 5 4 19 26 31 50 11 24 31 55 44 68 29 29 96 133 96 149 0 7 6 20 14 28 7 9 18 30 24 46 42 120 73 198 86 217 9 13 16 43 16 70 0 46 -1 48 -27 48 -16 0 -91 -32 -168 -71z m25 -64 c0 -8 -9 -15 -20 -15 -13 0 -28 -13 -41 -34 -23 -39 -30 -43 -99 -52 -44 -6 -50 -5 -44 10 3 9 15 16 26 16 11 0 32 8 46 18 15 10 42 24 60 31 17 8 32 17 32 21 0 5 8 11 18 13 9 3 18 5 20 6 1 0 2 -6 2 -14z m-235 -125 c-3 -5 -15 -10 -26 -10 -10 0 -19 5 -19 10 0 6 12 10 26 10 14 0 23 -4 19 -10z"></path></g></g><g id="l5PJbzZgouS0cZtQp1hqQny" fill="rgb(46,179,228)" style="transform: none;"><g style="transform: none;"><path id="pfQ3EhtoA" d="M1730 4419 c-30 -4 -73 -14 -95 -23 -22 -8 -46 -15 -53 -16 -25 0 -248 -117 -332 -174 -47 -31 -98 -72 -114 -89 -16 -18 -25 -25 -21 -17 5 8 -8 -1 -27 -20 -47 -46 -65 -60 -77 -60 -6 0 -22 -16 -37 -35 -14 -19 -32 -35 -39 -35 -17 0 -119 -114 -106 -118 21 -7 11 -32 -12 -32 -26 0 -67 -30 -67 -49 0 -7 4 -10 9 -7 5 4 12 0 14 -6 4 -10 6 -10 6 0 1 6 8 12 15 12 8 0 27 11 42 25 14 13 30 22 34 20 4 -3 11 2 14 11 3 8 9 13 13 11 5 -2 16 4 26 15 16 17 16 18 -5 18 -21 0 -21 1 5 28 15 15 27 38 27 50 0 18 6 22 29 22 20 0 36 9 49 25 11 14 25 25 31 25 6 0 11 7 11 15 0 8 6 15 14 15 8 0 21 6 28 13 7 7 34 28 61 45 26 18 47 37 47 41 0 5 10 11 23 15 12 3 31 12 42 21 34 26 89 61 108 68 9 3 17 11 17 17 0 6 10 15 23 20 22 9 22 9 -3 9 -20 1 -14 6 28 27 37 17 62 24 80 20 20 -5 23 -4 12 4 -13 8 -13 10 3 10 9 0 17 5 17 10 0 6 21 9 48 9 26 -1 37 -4 25 -6 -13 -2 -23 -9 -23 -14 0 -5 -7 -9 -15 -9 -8 0 -15 -6 -15 -14 0 -8 -13 -19 -30 -25 -16 -5 -30 -17 -30 -25 0 -9 -4 -16 -9 -16 -5 0 -12 -8 -15 -17 -13 -35 -31 -63 -40 -63 -17 0 -58 -52 -47 -59 8 -5 6 -13 -4 -27 -8 -11 -15 -14 -15 -6 0 6 -4 12 -9 12 -5 0 -8 -8 -7 -17 0 -10 -6 -18 -14 -19 -26 -1 -64 -16 -89 -35 -13 -11 -31 -19 -40 -19 -14 1 -14 2 2 11 9 5 17 17 17 24 0 14 12 19 33 16 4 0 7 3 7 9 0 16 -20 12 -47 -10 -14 -11 -33 -20 -43 -20 -10 0 -28 -9 -42 -19 -13 -11 -36 -23 -50 -26 -13 -3 -36 -17 -51 -31 -14 -13 -33 -24 -42 -24 -8 0 -15 -4 -15 -9 0 -5 -14 -12 -30 -16 -23 -5 -30 -12 -30 -30 0 -18 4 -22 20 -18 11 3 20 10 20 15 0 6 6 8 14 5 8 -3 17 1 20 9 3 9 10 13 15 10 5 -4 11 -2 13 3 1 5 10 11 18 13 8 2 21 11 28 20 7 9 19 15 27 12 8 -4 15 -1 15 5 0 6 7 8 17 4 10 -4 14 -2 10 4 -4 6 4 18 18 27 34 22 42 20 14 -5 -25 -21 -22 -21 21 -2 110 48 245 84 350 92 85 7 135 29 143 63 6 24 41 72 90 121 15 16 27 32 27 36 0 4 18 16 40 26 36 16 40 22 40 53 0 60 -41 72 -180 51z m-330 -154 c0 -9 -9 -15 -21 -15 -11 0 -33 -8 -47 -19 -41 -28 -72 -43 -72 -33 0 4 15 16 33 25 17 10 46 26 62 36 37 24 45 25 45 6z m-151 -79 c-15 -15 -79 -54 -74 -45 4 6 21 19 39 30 29 18 45 24 35 15z"></path><path id="pC5fz6qOn" d="M1983 4403 c-53 -4 -53 -4 -53 -39 l0 -34 51 0 c31 0 56 -6 65 -15 19 -18 66 -19 111 -3 30 11 34 16 31 43 -3 26 -7 30 -35 33 -18 2 -33 7 -33 13 0 9 -30 9 -137 2z"></path><path id="pb8NwKeiA" d="M1425 3959 c-123 -51 -155 -66 -235 -112 -144 -82 -203 -120 -286 -181 -83 -62 -294 -269 -315 -308 l-12 -23 24 20 24 20 -24 -27 c-13 -15 -27 -25 -32 -23 -4 3 -5 -4 -2 -15 3 -12 0 -20 -6 -20 -7 0 -9 5 -5 13 5 8 3 8 -9 -2 -9 -7 -14 -17 -11 -22 3 -5 1 -9 -4 -9 -6 0 -13 -7 -16 -16 -3 -8 -2 -13 3 -10 5 4 7 -3 4 -15 -4 -16 -8 -17 -14 -7 -5 7 -9 11 -10 8 0 -3 -2 -15 -5 -27 -5 -29 28 -49 54 -33 15 10 14 10 -4 5 -13 -3 -26 1 -35 12 -12 15 -12 16 1 8 18 -11 81 -15 75 -5 -2 4 8 7 23 7 15 0 59 13 97 27 72 28 172 58 260 79 65 15 78 28 73 75 -3 25 1 47 14 67 10 17 18 39 18 50 1 25 27 57 62 74 14 7 28 22 31 31 5 20 78 70 102 70 9 0 18 8 21 18 16 48 36 82 49 82 8 0 15 5 15 10 0 6 9 10 19 10 10 0 21 7 25 15 3 8 12 15 21 15 8 0 15 7 15 15 0 8 7 15 16 15 8 0 29 14 46 30 16 17 38 30 49 30 15 0 19 7 19 35 0 35 -1 35 -42 35 -24 -1 -65 -10 -93 -21z m-500 -341 c-3 -18 -12 -38 -20 -44 -8 -6 -15 -17 -15 -23 0 -7 -11 -23 -24 -37 -25 -28 -51 -120 -47 -172 3 -38 -13 -62 -40 -62 -11 0 -19 -3 -19 -7 0 -12 -52 -33 -63 -26 -5 3 1 11 13 18 15 8 19 14 11 19 -7 4 -19 2 -27 -5 -9 -7 -23 -14 -32 -16 -10 -1 -35 -12 -57 -23 -72 -37 -52 6 57 124 32 33 58 67 58 74 0 6 4 12 9 12 5 0 27 15 49 33 30 25 38 38 31 48 -8 11 -14 9 -34 -13 -13 -16 -29 -28 -36 -28 -6 0 -8 -7 -4 -17 5 -14 4 -15 -6 -6 -10 10 -15 9 -26 -5 -8 -9 -13 -11 -11 -5 4 17 210 192 226 193 8 0 11 -10 7 -32z m-262 -203 c-10 -13 -25 -27 -33 -30 -8 -4 -2 8 14 24 36 37 43 40 19 6z"></path><path id="pBe3cqUGf" d="M720 3718 c0 -4 9 -8 20 -8 11 0 20 4 20 8 0 4 -9 8 -20 8 -11 0 -20 -4 -20 -8z"></path><path id="p18DViZtGi" d="M850 3150 c-8 -4 -48 -20 -87 -36 -111 -42 -227 -101 -211 -108 7 -3 4 -5 -7 -3 -24 2 -110 -37 -121 -55 -5 -8 4 -5 21 5 l30 18 -30 -26 c-16 -14 -39 -24 -50 -23 -11 1 -33 -6 -50 -15 -33 -18 -26 -23 8 -6 18 9 20 9 10 -2 -7 -7 -26 -14 -41 -15 -30 -2 -72 -23 -72 -36 0 -5 -6 -8 -14 -8 -7 0 -25 -11 -40 -25 -15 -14 -31 -25 -36 -25 -5 0 -17 -13 -27 -30 -9 -16 -22 -30 -27 -30 -5 0 -1 10 9 23 10 12 0 4 -21 -18 -22 -22 -44 -41 -48 -42 -4 -1 -11 -5 -14 -9 -4 -4 -1 -4 6 0 6 4 12 2 12 -4 0 -7 9 -9 23 -5 17 5 19 4 7 -4 -8 -6 -11 -11 -7 -11 11 0 67 30 67 36 0 3 -4 2 -10 -1 -5 -3 -10 -2 -10 4 0 6 13 8 33 5 26 -5 29 -3 17 6 -12 9 -10 11 11 6 15 -3 34 0 45 9 10 8 14 15 9 15 -6 0 -17 -6 -25 -12 -12 -11 -12 -10 0 5 9 13 21 16 38 12 17 -4 22 -2 16 6 -5 8 0 10 17 6 14 -3 32 0 43 9 26 19 76 19 76 -1 0 -8 -9 -19 -21 -26 -31 -16 -115 -103 -144 -149 -14 -22 -36 -70 -50 -106 -22 -59 -25 -81 -25 -203 0 -75 5 -170 11 -211 5 -41 16 -127 24 -190 8 -63 22 -144 30 -180 8 -36 24 -110 36 -165 12 -55 27 -118 35 -140 22 -65 18 -110 -12 -134 -15 -12 -33 -21 -41 -21 -8 0 -13 -5 -11 -12 8 -22 75 -49 142 -55 l66 -6 0 37 c0 34 -2 36 -31 36 l-32 0 5 85 c6 81 7 86 47 134 22 27 41 56 41 65 0 9 5 16 10 16 6 0 10 -13 10 -30 0 -20 5 -30 15 -30 10 0 15 -11 15 -35 0 -24 5 -35 15 -35 8 0 15 -9 15 -20 0 -11 5 -20 10 -20 6 0 10 -16 10 -35 0 -33 2 -35 35 -35 l35 0 0 49 c0 27 -4 51 -8 53 -7 3 -15 30 -53 198 -6 25 -17 83 -25 130 -8 47 -23 128 -35 180 -63 291 -67 468 -13 569 36 66 47 84 61 96 24 19 104 171 140 265 48 125 67 155 108 174 19 9 38 23 42 30 4 8 17 15 28 17 16 3 21 13 23 52 3 43 1 47 -20 46 -13 0 -30 -4 -38 -9z m-110 -98 c0 -10 -7 -28 -16 -40 -13 -19 -45 -100 -86 -217 -6 -16 -19 -39 -29 -51 -11 -11 -17 -23 -13 -26 6 -7 -74 -138 -85 -138 -3 0 -17 -18 -31 -40 -14 -22 -28 -40 -32 -40 -4 0 -12 -10 -18 -22 -11 -22 -10 -22 4 -4 9 11 16 15 16 9 0 -6 -7 -16 -15 -23 -8 -7 -15 -22 -15 -35 0 -12 -5 -37 -11 -55 -9 -26 -9 -34 2 -42 11 -8 10 -9 -3 -4 -15 4 -18 -1 -18 -34 0 -22 5 -40 10 -40 6 0 10 -10 10 -22 0 -23 0 -23 -20 2 -11 14 -20 32 -21 40 0 8 -5 4 -10 -10 -5 -14 -25 -34 -44 -44 -33 -18 -40 -31 -35 -66 3 -20 -21 -90 -31 -90 -5 0 -6 -35 -3 -77 4 -52 2 -73 -4 -64 -8 11 -11 10 -15 -5 -3 -10 -3 -1 0 21 2 22 7 48 10 58 3 12 -1 17 -14 17 -15 0 -18 7 -17 37 1 21 -2 40 -6 43 -13 8 -19 53 -25 175 -3 63 -2 102 3 91 6 -13 11 -16 16 -8 3 6 1 20 -6 31 -10 16 -10 27 1 56 7 19 15 47 17 62 3 14 10 36 17 47 11 20 12 19 15 -13 2 -24 6 -30 12 -21 4 7 4 24 -1 38 -7 18 -5 31 6 48 22 33 95 107 128 129 26 17 28 17 47 0 18 -16 20 -17 20 -2 0 10 -7 17 -15 17 -22 0 -18 27 5 40 11 6 20 15 20 19 0 18 -32 20 -57 4 -26 -17 -26 -17 -12 5 10 16 23 22 52 22 23 0 36 4 32 10 -3 6 -24 10 -45 10 -21 0 -42 -4 -45 -10 -3 -5 -14 -10 -24 -10 -10 0 -40 -11 -67 -25 -58 -30 -64 -31 -38 -7 24 20 54 39 109 65 22 11 42 22 45 26 3 3 34 21 70 39 36 18 72 36 80 41 8 5 34 17 58 28 27 13 38 22 29 26 -8 3 -20 1 -28 -4 -8 -5 -23 -9 -34 -9 -20 1 -20 1 0 12 33 19 109 46 133 47 15 1 22 -5 22 -17z m-210 -60 c0 -5 -12 -14 -27 -21 l-28 -12 25 21 c29 22 30 23 30 12z m-170 -199 c-8 -3 -28 -12 -44 -20 -17 -9 -25 -10 -21 -3 8 13 43 29 65 29 13 -1 13 -1 0 -6z"></path><path id="pLJi39l34" d="M377 2706 c-6 -14 0 -26 13 -26 3 0 6 9 7 20 2 23 -12 27 -20 6z"></path><path id="pi8Ru1TD4" d="M10 2655 c-10 -12 -9 -15 6 -15 11 0 25 4 32 9 11 7 10 10 -3 15 -22 8 -21 8 -35 -9z"></path><path id="p10yMQdp7y" d="M610 1200 c0 -39 1 -40 35 -40 34 0 35 1 35 40 0 39 -1 40 -35 40 -34 0 -35 -1 -35 -40z"></path><path id="pUe9B5UKf" d="M240 710 c0 -5 1 -10 3 -10 1 0 17 -4 35 -9 28 -9 32 -7 32 10 0 15 -7 19 -35 19 -19 0 -35 -4 -35 -10z"></path></g></g><g id="l54qWwG96I42SyzBUtr2YBv" fill="rgb(33,192,228)" style="transform: none;"><g style="transform: none;"><path id="pyvDm1jEU" d="M1400 4265 c0 -8 -9 -15 -19 -15 -10 0 -49 -18 -86 -41 -80 -48 -102 -58 -90 -39 5 9 4 11 -4 6 -6 -4 -9 -11 -7 -15 5 -8 -38 -51 -51 -51 -8 0 -113 -82 -162 -127 -20 -18 -39 -33 -43 -33 -4 0 -31 -26 -60 -57 -29 -31 -70 -75 -90 -97 -40 -42 -46 -56 -25 -52 30 5 57 18 57 27 0 6 5 7 10 4 6 -3 10 -3 10 2 0 4 15 16 33 27 86 50 106 61 157 89 30 16 60 34 67 39 12 10 59 35 126 69 20 11 37 26 37 34 0 14 12 19 33 16 4 0 7 8 7 19 0 11 5 20 10 20 6 0 10 8 10 19 0 10 7 24 15 31 8 7 15 21 15 31 0 12 7 19 19 19 11 0 23 4 26 10 3 5 0 7 -8 4 -26 -10 -27 13 -2 24 14 7 25 16 25 22 0 6 10 15 23 20 21 8 21 9 -5 9 -19 1 -28 -4 -28 -14z"></path><path id="p4TMvHw18" d="M745 3528 l-40 -43 43 40 c39 36 47 45 39 45 -2 0 -21 -19 -42 -42z"></path><path id="pw5uu76VI" d="M772 3515 c-11 -14 -25 -25 -32 -25 -7 0 -10 -7 -6 -16 5 -14 4 -15 -8 -5 -11 9 -15 8 -20 -4 -3 -8 -11 -15 -17 -15 -8 0 -7 6 2 18 13 15 12 16 -3 4 -9 -8 -15 -19 -12 -25 5 -15 -44 -69 -56 -62 -5 3 -12 0 -16 -6 -4 -8 -3 -9 4 -5 22 13 12 -10 -13 -34 -14 -13 -25 -29 -25 -37 0 -7 -7 -13 -15 -13 -8 0 -19 -17 -26 -40 -7 -21 -16 -37 -20 -34 -14 8 -10 -13 4 -24 9 -8 24 -8 50 -1 43 11 147 59 132 59 -5 1 1 7 15 15 14 8 22 14 18 15 -3 0 2 24 13 52 10 29 19 70 19 90 0 27 4 38 15 38 17 0 44 49 38 68 -7 18 -19 15 -41 -13z"></path><path id="pgLzZi7Mg" d="M615 3018 c-9 -6 -31 -7 -48 -4 -23 4 -28 3 -17 -4 13 -8 12 -10 -2 -10 -10 0 -18 -4 -18 -8 0 -17 -47 -31 -60 -19 -10 9 -11 9 -6 0 8 -15 -44 -52 -77 -55 -14 -1 -24 -6 -21 -10 6 -10 -29 -28 -59 -30 -17 -2 -23 -7 -19 -17 4 -10 0 -13 -16 -9 -15 4 -23 1 -27 -12 -3 -10 -21 -25 -40 -35 -19 -9 -35 -20 -35 -25 0 -6 -6 -10 -14 -10 -8 0 -21 -8 -28 -18 -20 -27 -69 -62 -79 -56 -5 3 -6 -2 -3 -10 7 -19 53 -12 71 11 6 8 29 16 51 16 22 1 38 5 36 8 -7 13 26 31 46 26 11 -3 18 -1 14 4 -3 5 1 9 9 9 8 0 20 7 27 15 7 8 28 17 49 21 20 3 41 12 47 20 15 19 103 22 115 3 7 -11 9 -11 9 4 0 10 7 20 15 23 8 3 23 21 35 41 15 25 26 33 42 31 18 -2 23 2 25 27 1 16 7 31 13 33 5 2 8 8 4 13 -3 5 0 9 5 9 6 0 11 4 11 9 0 14 -35 19 -55 9z"></path><path id="pHyT4f6z4" d="M627 2752 c-5 -12 -12 -20 -17 -17 -5 3 -12 0 -16 -6 -5 -8 -3 -9 6 -4 9 5 10 2 5 -14 -5 -15 -2 -21 10 -21 19 0 28 20 23 57 -3 27 -4 27 -11 5z"></path><path id="pml9nDcwV" d="M441 2740 c-22 -5 -22 -7 -7 -19 12 -10 20 -11 28 -3 16 16 5 29 -21 22z"></path><path id="p131MXZtjA" d="M376 2705 c-3 -8 3 -19 14 -25 24 -13 50 -13 50 1 0 5 -10 9 -22 7 -17 -2 -22 1 -20 15 4 21 -14 23 -22 2z"></path><path id="pwwKfb4eM" d="M336 2671 c-5 -8 -4 -16 2 -20 5 -3 12 -15 14 -26 3 -17 5 -15 10 7 3 15 2 25 -3 23 -4 -3 -9 3 -11 12 -3 14 -5 15 -12 4z"></path><path id="pEeemu9LL" d="M300 2641 c0 -5 -3 -18 -7 -28 -6 -16 -5 -16 10 -4 19 15 23 41 7 41 -5 0 -10 -4 -10 -9z"></path><path id="p8qeeEYrX" d="M241 2525 c0 -31 2 -36 9 -23 6 10 7 25 1 40 -9 20 -10 18 -10 -17z"></path><path id="p11RGHGbrq" d="M180 2360 c0 -19 3 -21 12 -12 9 9 9 15 0 24 -9 9 -12 7 -12 -12z"></path></g></g><g id="l73dzL7OQmWlYyV4NAysoKY" fill="rgb(59,167,230)" style="transform: none;"><g style="transform: none;"><path id="pP9YRFnLv" d="M1750 4424 c-48 -6 -150 -37 -150 -46 0 -10 -3 -11 55 11 70 26 173 27 203 2 12 -11 22 -21 22 -24 0 -2 -18 -12 -40 -22 -22 -10 -40 -22 -40 -26 0 -4 -12 -20 -27 -36 -49 -49 -84 -97 -90 -121 -7 -30 -69 -61 -146 -73 -33 -6 -79 -19 -101 -29 -49 -23 -26 -26 34 -5 43 15 184 20 228 9 41 -11 17 -29 -56 -41 -39 -7 -81 -17 -92 -23 -12 -6 -43 -18 -68 -25 -77 -22 -132 -44 -225 -91 -104 -52 -191 -108 -177 -112 6 -2 34 12 63 30 28 19 67 40 85 47 17 8 32 17 32 22 0 5 8 9 18 9 10 0 34 8 54 19 20 10 53 21 74 24 20 3 44 13 54 22 12 11 20 13 25 6 9 -15 -49 -71 -74 -71 -14 0 -19 -5 -15 -15 4 -10 0 -15 -10 -15 -9 0 -19 -7 -22 -15 -4 -8 -15 -15 -25 -15 -10 0 -19 -4 -19 -9 0 -5 -12 -12 -26 -15 -17 -5 -24 -12 -20 -21 3 -9 -3 -19 -15 -26 -16 -8 -18 -14 -9 -24 7 -8 7 -15 1 -19 -5 -3 -11 0 -14 6 -3 9 -12 5 -29 -12 -14 -14 -37 -33 -52 -43 -14 -10 -26 -24 -26 -31 0 -7 -12 -19 -27 -26 -36 -18 -72 -61 -66 -77 3 -7 -5 -30 -17 -51 -16 -28 -21 -51 -18 -76 3 -29 1 -36 -13 -36 -10 0 -21 -5 -25 -12 -5 -8 -2 -9 11 -4 15 5 16 4 5 -9 -7 -9 -21 -13 -31 -10 -17 6 -45 -6 -79 -31 -8 -7 -34 -15 -57 -19 -23 -3 -47 -12 -53 -19 -11 -14 -9 -14 145 33 39 12 80 21 92 21 11 0 50 9 85 20 34 11 88 20 119 20 31 0 76 7 100 15 24 9 54 13 66 11 11 -3 49 -3 82 0 l61 7 0 38 c0 27 4 39 14 39 7 0 16 9 19 20 3 13 14 20 31 20 21 0 26 6 32 36 4 24 13 38 25 41 11 3 19 12 19 20 0 19 76 90 105 97 14 4 29 15 35 26 6 11 17 20 25 20 8 0 15 5 15 11 0 6 18 29 40 50 22 22 40 43 40 48 0 5 9 11 20 14 11 3 20 12 20 21 0 9 8 16 20 16 13 0 20 7 20 19 0 10 9 21 20 24 12 3 20 14 20 25 0 22 47 56 93 67 15 4 27 11 27 16 0 5 14 9 30 9 29 0 30 2 30 44 0 41 -2 45 -38 59 -20 8 -62 18 -93 22 -68 8 -91 20 -69 35 35 24 320 -6 410 -44 12 -5 16 1 18 23 2 29 -30 78 -72 111 -22 17 -145 70 -162 70 -6 0 -40 9 -75 21 -49 15 -97 21 -204 24 -77 2 -156 1 -175 -1z m340 -52 c0 -4 -30 -8 -67 -8 l-68 -1 55 7 c30 4 61 7 68 8 6 1 12 -1 12 -6z m20 -32 c0 -13 -11 -13 -30 0 -12 8 -11 10 8 10 12 0 22 -4 22 -10z"></path><path id="paaxOB0VC" d="M1508 4351 c-52 -24 -62 -37 -13 -17 22 10 44 21 50 27 12 12 7 11 -37 -10z"></path><path id="pd6pwgFUp" d="M1415 4305 c-16 -8 -23 -14 -14 -15 8 0 24 7 35 15 23 18 18 18 -21 0z"></path><path id="pQz668Sz8" d="M1310 4020 c-19 -11 -31 -19 -27 -20 5 0 18 5 30 12 12 6 36 15 52 19 27 6 28 7 5 8 -14 0 -41 -8 -60 -19z"></path><path id="p9fYSi9jO" d="M1015 3744 c-22 -12 -56 -37 -75 -53 l-35 -31 53 33 c50 30 114 77 102 76 -3 -1 -23 -12 -45 -25z"></path><path id="p10SAlKyFG" d="M865 3634 c-18 -16 -22 -22 -9 -15 18 9 53 42 43 41 -2 -1 -17 -12 -34 -26z"></path><path id="pK67Uu0ij" d="M755 3538 l-50 -53 53 50 c28 27 52 51 52 52 0 8 -9 -1 -55 -49z"></path><path id="pUH2tZAoR" d="M1340 3335 c0 -12 -82 -45 -114 -45 -6 0 -34 -9 -63 -20 -29 -12 -79 -30 -110 -42 -32 -12 -76 -30 -99 -40 -22 -10 -46 -18 -53 -18 -7 0 -25 -6 -39 -14 -15 -8 -61 -26 -102 -42 -41 -15 -84 -34 -95 -41 -26 -17 -15 -16 22 2 16 8 40 16 54 17 13 2 29 8 34 14 6 7 32 14 59 17 30 3 43 1 35 -4 -11 -7 -11 -9 -1 -9 7 0 10 -4 7 -10 -3 -5 -18 -10 -32 -10 -15 0 -23 -3 -20 -7 9 -8 -13 -34 -23 -28 -10 6 -49 -30 -71 -65 -9 -14 -28 -59 -44 -100 -37 -99 -99 -219 -149 -289 -66 -91 -84 -131 -96 -218 -15 -112 2 -287 50 -508 31 -141 48 -255 42 -278 -3 -13 -1 -18 5 -14 7 4 13 -6 16 -26 3 -17 8 -43 11 -57 l7 -25 -13 25 c-17 35 -18 36 -27 22 -4 -6 -6 15 -5 48 1 64 -6 79 -26 55 -7 -8 -19 -15 -26 -15 -8 0 -14 -9 -14 -20 0 -11 -4 -20 -10 -20 -5 0 -10 -7 -10 -16 0 -9 -18 -38 -40 -64 -22 -26 -40 -58 -40 -71 -1 -22 -2 -22 -11 -6 -8 13 -7 22 1 32 6 7 10 31 7 52 l-4 38 -1 -42 c-2 -44 -22 -62 -22 -20 -1 21 -1 21 -12 3 -8 -15 -8 -21 0 -24 7 -2 12 -16 12 -30 l0 -27 -14 27 c-8 14 -17 45 -21 67 -4 22 -15 58 -25 78 -9 21 -20 72 -24 113 -4 41 -11 77 -16 80 -5 3 -14 44 -19 90 -5 47 -13 112 -17 145 -4 33 -11 67 -16 75 -6 10 -7 -1 -3 -30 3 -25 13 -97 21 -160 7 -63 21 -144 29 -180 8 -36 24 -110 36 -165 12 -55 28 -120 35 -144 26 -84 14 -123 -43 -148 l-36 -14 32 -20 c17 -10 53 -24 79 -29 26 -6 65 -17 87 -25 22 -8 66 -17 98 -20 45 -5 63 -12 82 -33 l25 -27 -109 -5 c-60 -3 -113 -8 -117 -13 -9 -9 11 -137 31 -192 20 -58 18 -80 -11 -114 -24 -29 -29 -31 -99 -31 -78 0 -107 -14 -53 -25 18 -4 42 -13 53 -20 11 -7 36 -16 55 -20 19 -4 49 -13 65 -21 27 -12 51 -19 144 -41 16 -4 27 -1 33 11 5 9 18 16 28 16 16 0 20 7 20 35 0 19 5 35 10 35 6 0 10 16 10 35 0 31 -3 35 -25 35 -31 0 -33 16 -2 26 27 8 37 22 37 52 0 35 32 27 51 -13 9 -19 13 -35 8 -35 -10 0 -12 -50 -3 -74 4 -11 19 -16 45 -16 30 0 39 -4 39 -17 1 -21 33 -63 49 -63 6 0 11 -8 11 -19 0 -10 11 -27 25 -37 14 -10 25 -24 25 -31 0 -7 6 -13 14 -13 8 0 16 -4 18 -8 2 -5 20 -12 41 -15 34 -5 37 -4 37 18 0 31 -10 55 -22 55 -10 0 -38 25 -38 34 0 11 -35 46 -46 46 -6 0 -14 13 -17 30 -4 16 -16 39 -27 50 -11 11 -20 25 -20 30 0 6 -7 13 -15 16 -8 4 -15 12 -15 20 0 8 -4 14 -10 14 -5 0 -10 7 -10 16 0 9 -15 48 -34 87 -40 85 -82 192 -89 227 -3 14 -30 116 -60 226 -30 111 -64 257 -76 325 -12 68 -26 143 -30 167 -5 23 -5 42 0 42 5 0 9 6 9 14 0 7 10 16 21 19 24 6 24 20 -3 219 -10 77 -10 94 6 145 37 119 111 198 256 273 36 18 72 36 80 41 38 19 122 42 200 53 106 15 130 27 130 66 0 30 -1 30 -55 30 -44 0 -55 -3 -55 -16 0 -14 -8 -15 -57 -9 -32 4 -59 11 -61 16 -2 5 -22 9 -45 10 -41 0 -42 0 -19 16 12 8 22 23 22 32 0 10 9 27 20 39 11 12 20 26 20 32 0 6 12 16 26 22 16 7 27 23 31 41 3 16 13 31 22 35 9 3 34 20 56 37 22 18 50 38 63 44 12 6 22 16 22 22 0 13 40 53 63 62 9 3 17 13 17 21 0 8 9 18 20 21 11 3 20 10 20 14 0 5 16 25 35 45 26 28 35 46 35 72 0 33 -1 34 -40 34 -28 0 -40 -4 -40 -15z m-990 -2085 c0 -55 -12 -62 -65 -38 l-26 12 23 13 c13 7 31 12 41 13 11 0 17 8 17 25 0 14 2 25 5 25 3 0 5 -22 5 -50z"></path><path id="p1DQi0jgf8" d="M162 2400 c0 -19 2 -27 5 -17 2 9 2 25 0 35 -3 9 -5 1 -5 -18z"></path><path id="p62qCNJyQ" d="M163 2195 c0 -44 2 -61 4 -37 2 23 2 59 0 80 -2 20 -4 1 -4 -43z"></path><path id="pOweaQy8n" d="M440 1674 c0 -14 3 -14 15 -4 8 7 15 14 15 16 0 2 -7 4 -15 4 -8 0 -15 -7 -15 -16z"></path><path id="pBZFFOawR" d="M525 469 c-9 -13 39 -84 85 -126 24 -23 45 -33 68 -33 l32 0 0 68 0 69 -75 16 c-89 20 -102 21 -110 6z"></path></g></g><g id="l37mAFozVp64j9uLeSxcZxG" fill="rgb(67,159,231)" style="transform: none;"><g style="transform: none;"><path id="pdn36H7vG" d="M1795 4424 c47 -7 213 -9 202 -2 -6 4 -59 7 -117 6 -58 0 -96 -2 -85 -4z"></path><path id="pK4Ib3j8g" d="M2160 4381 c8 -6 25 -11 37 -11 30 0 54 -11 47 -21 -4 -8 21 -14 29 -7 5 6 67 -44 67 -53 0 -5 12 -22 26 -37 28 -30 57 -77 33 -54 -7 6 -21 12 -30 12 -9 0 -44 9 -77 19 -50 16 -81 19 -177 15 -118 -4 -155 -13 -155 -39 0 -21 27 -32 97 -38 44 -3 68 -11 84 -26 13 -12 26 -21 31 -21 4 0 8 -7 8 -15 0 -10 -10 -15 -30 -15 -16 0 -30 -4 -30 -9 0 -5 -12 -12 -27 -16 -46 -11 -93 -45 -93 -67 0 -11 -8 -22 -20 -25 -11 -3 -20 -14 -20 -24 0 -12 -7 -19 -20 -19 -12 0 -20 -7 -20 -16 0 -9 -9 -18 -20 -21 -11 -3 -20 -9 -20 -14 0 -5 -18 -26 -40 -48 -22 -21 -40 -44 -40 -50 0 -6 -6 -11 -14 -11 -7 0 -20 -9 -27 -20 -8 -11 -23 -22 -35 -24 -11 -2 -36 -19 -55 -38 -19 -18 -43 -39 -54 -46 -11 -7 -14 -10 -7 -7 6 4 12 0 12 -8 0 -8 -9 -17 -20 -20 -12 -3 -20 -14 -20 -27 0 -11 -6 -20 -12 -19 -29 3 -37 -3 -49 -36 -7 -19 -18 -35 -25 -35 -14 0 -25 -25 -19 -43 8 -20 -29 -36 -114 -46 -44 -6 -91 -17 -103 -25 -13 -7 -55 -16 -93 -18 -39 -3 -84 -12 -100 -21 -38 -21 -20 -21 35 -2 23 8 68 15 99 15 32 0 79 7 104 16 47 16 77 14 77 -6 0 -5 -8 -10 -18 -10 -11 0 -32 -11 -47 -24 -16 -13 -44 -27 -64 -31 -36 -6 -107 -31 -191 -67 -25 -10 -34 -17 -20 -14 31 6 113 33 162 53 26 11 53 14 88 10 27 -3 52 -2 55 4 4 5 12 9 18 9 7 0 0 -12 -15 -25 -16 -13 -28 -28 -28 -34 0 -5 -10 -7 -22 -4 -19 4 -20 3 -8 -6 10 -7 11 -11 3 -11 -7 0 -13 -7 -13 -15 0 -9 -8 -19 -17 -22 -23 -9 -63 -49 -63 -62 0 -6 -10 -16 -22 -22 -13 -6 -41 -26 -63 -44 -22 -17 -47 -34 -56 -37 -9 -4 -19 -19 -22 -35 -4 -18 -15 -34 -31 -41 -14 -6 -26 -17 -26 -23 0 -7 -11 -22 -25 -35 -14 -12 -22 -29 -20 -36 3 -8 -8 -24 -25 -36 -19 -15 -30 -31 -30 -47 0 -23 4 -25 53 -26 40 -1 45 -3 23 -8 -32 -6 -38 -26 -8 -26 9 0 19 -3 22 -6 3 -3 37 -2 75 2 39 4 86 8 105 7 67 0 -9 -16 -85 -17 -57 -1 -74 -5 -88 -21 -11 -13 -29 -20 -51 -20 -23 0 -39 -7 -48 -19 -8 -11 -26 -23 -41 -26 -14 -4 -31 -13 -38 -21 -6 -8 -17 -14 -24 -14 -21 0 -127 -89 -161 -135 -17 -23 -37 -58 -43 -78 -7 -20 -17 -39 -22 -42 -13 -9 -11 -117 5 -215 15 -90 8 -137 -19 -127 -9 4 -15 -2 -18 -16 -4 -22 -4 -22 -6 -1 0 12 -8 35 -16 50 -16 29 -16 29 -10 -21 4 -27 13 -81 20 -120 8 -38 23 -124 35 -190 31 -177 101 -435 117 -435 7 0 13 10 13 23 0 35 -33 167 -42 167 -4 0 -8 9 -8 20 0 11 -13 87 -29 168 -43 219 -42 212 -28 212 34 0 36 106 6 328 -11 83 -11 98 5 150 37 118 111 197 256 272 36 18 72 36 80 41 38 19 122 42 200 53 139 20 161 41 168 155 4 73 6 79 33 95 18 11 29 26 29 39 0 31 11 44 40 48 20 3 26 10 28 38 4 36 7 42 65 102 20 21 37 43 37 47 0 10 56 52 69 52 5 0 12 13 16 29 5 24 12 30 38 33 28 3 32 7 35 36 2 17 8 32 13 32 5 0 14 11 19 25 6 15 17 25 30 25 15 0 20 7 20 25 0 17 6 25 18 25 21 0 62 42 62 64 0 11 9 16 30 16 31 0 34 3 44 52 3 15 15 29 26 33 10 3 22 15 25 26 4 10 13 19 21 19 8 0 14 6 14 13 0 8 9 22 20 32 11 10 20 24 20 31 0 6 14 17 30 23 17 5 46 26 64 46 18 19 37 35 42 35 5 0 18 10 29 23 24 26 97 67 119 67 9 0 16 6 16 13 0 23 35 47 68 47 29 0 32 3 32 29 0 17 -6 33 -12 38 -23 14 -132 54 -173 63 -22 5 -56 15 -75 23 -19 8 -60 18 -91 22 -123 15 -99 45 36 45 90 0 236 -27 304 -57 29 -12 33 -12 23 0 -15 18 -3 30 15 16 9 -8 13 -8 13 0 0 16 -32 51 -47 51 -7 0 -13 8 -13 18 0 25 -56 66 -131 95 -72 28 -144 45 -119 28z"></path><path id="puh2kBnSf" d="M1543 4073 c9 -2 25 -2 35 0 9 3 1 5 -18 5 -19 0 -27 -2 -17 -5z"></path><path id="pu8HzOwYu" d="M1630 4074 c14 -2 40 -7 58 -10 52 -8 33 -28 -39 -40 l-64 -12 50 -1 c50 -1 121 12 133 23 3 4 -1 14 -10 22 -11 11 -39 17 -84 19 -38 2 -58 2 -44 -1z"></path><path id="p19MZ04hCQ" d="M2570 3935 c0 -33 2 -35 35 -35 32 0 35 3 35 29 0 21 -6 30 -22 35 -42 11 -48 7 -48 -29z"></path><path id="prsERAcW0" d="M836 2070 c-51 -50 -77 -82 -71 -88 6 -5 48 -6 95 -3 l85 6 3 30 c4 35 16 45 55 45 25 0 27 3 27 39 0 42 -13 51 -79 51 -29 0 -46 -12 -115 -80z"></path><path id="p102z0f6sH" d="M598 1812 c-13 -2 -18 -13 -18 -38 0 -19 3 -34 8 -34 4 -1 69 -3 145 -6 l137 -6 0 36 c0 32 -3 36 -32 40 -43 7 -218 13 -240 8z"></path><path id="pGyAmpAap" d="M305 1330 c0 -26 3 -46 8 -43 9 5 9 64 -1 80 -4 6 -7 -10 -7 -37z"></path><path id="pCRuFb2HT" d="M660 1174 c0 -8 5 -24 11 -35 5 -11 9 -27 7 -36 -2 -13 -8 -12 -33 9 -25 21 -45 27 -115 32 -47 4 -89 11 -95 16 -5 5 -28 11 -50 15 -36 5 -35 4 15 -14 30 -11 81 -22 113 -26 59 -7 90 -25 81 -49 -4 -10 -31 -15 -99 -18 -51 -1 -97 -6 -101 -11 -9 -9 11 -137 31 -192 20 -57 18 -80 -10 -114 -21 -24 -35 -31 -73 -34 l-47 -3 53 -2 c46 -2 56 2 83 28 30 28 31 33 26 84 -3 30 -13 65 -22 79 -9 15 -17 49 -18 83 l-2 59 138 -4 c131 -3 137 -3 132 15 -4 11 1 6 10 -9 14 -24 15 -34 5 -58 -10 -24 -9 -33 10 -64 25 -40 14 -48 -14 -10 -24 32 -36 23 -36 -28 0 -52 -15 -80 -30 -57 -8 13 -10 12 -10 -2 0 -10 -4 -18 -10 -18 -5 0 -10 -18 -10 -39 0 -22 -5 -42 -12 -44 -10 -4 -10 -6 0 -6 15 -1 16 -55 1 -79 -13 -21 -86 -19 -136 4 -17 8 -44 14 -60 13 -27 -1 -27 -1 7 -11 19 -5 40 -13 45 -18 6 -5 28 -11 50 -15 22 -4 51 -13 65 -20 14 -8 63 -19 108 -25 45 -7 82 -16 82 -20 0 -4 28 -11 63 -15 34 -3 85 -12 112 -20 28 -7 68 -15 90 -17 35 -3 40 0 43 19 2 17 -11 37 -46 71 -27 27 -53 58 -56 70 -4 12 -11 22 -16 22 -5 0 -12 9 -15 20 -3 11 -13 20 -21 20 -8 0 -14 9 -14 20 0 11 -3 20 -7 20 -5 0 -19 23 -32 50 -14 28 -29 50 -33 50 -4 0 -8 9 -8 20 0 11 -4 20 -10 20 -5 0 -10 9 -10 20 0 11 -4 20 -10 20 -5 0 -10 11 -10 24 0 14 -7 32 -16 41 -9 9 -21 37 -26 63 -4 26 -13 49 -18 50 -6 2 -10 19 -10 38 0 27 -4 34 -20 34 -11 0 -20 -7 -20 -16z m96 -268 c18 -39 32 -72 29 -74 -2 -2 -12 13 -23 35 -38 75 -49 93 -55 86 -9 -8 -9 11 0 33 5 14 8 15 11 3 3 -7 20 -45 38 -83z"></path><path id="p5Ns7PdTy" d="M525 469 c-9 -14 40 -85 90 -131 22 -21 60 -45 85 -54 58 -21 153 -42 163 -37 8 5 9 49 1 81 -4 13 -14 22 -26 22 -28 0 -48 24 -48 59 0 27 -4 31 -27 31 -16 0 -66 9 -113 20 -98 23 -116 24 -125 9z m79 -18 c23 -11 49 -22 59 -25 9 -3 17 -10 17 -16 0 -6 -4 -9 -9 -6 -5 3 -11 -4 -14 -15 -4 -15 -2 -19 9 -15 8 3 14 2 14 -3 0 -5 -10 -11 -21 -14 -26 -7 -72 25 -88 59 -6 13 -15 24 -21 24 -5 0 -10 7 -10 15 0 20 14 19 64 -4z"></path><path id="pK9iQrckl" d="M1130 325 c0 -33 2 -35 35 -35 33 0 35 2 35 35 0 33 -2 35 -35 35 -33 0 -35 -2 -35 -35z"></path></g></g><g id="l5LjeQdqovopK2FGDceDACo" fill="rgb(77,152,233)" style="transform: none;"><g style="transform: none;"><path id="pPhTzyLPf" d="M2303 4337 c15 -7 36 -29 45 -48 10 -19 23 -33 31 -31 7 1 9 -2 6 -8 -4 -7 3 -22 16 -36 l23 -24 -35 6 c-19 4 -56 14 -84 22 -27 8 -99 15 -160 17 l-110 2 100 -7 c90 -6 257 -38 283 -54 5 -3 13 2 17 12 6 15 8 15 26 -7 15 -18 19 -20 19 -6 0 22 -27 48 -43 42 -8 -3 -14 4 -15 16 0 12 -8 27 -17 33 -8 6 -15 15 -15 20 0 12 -60 51 -90 58 -23 5 -23 5 3 -7z"></path><path id="p16QIKwNOg" d="M1993 4223 c-19 -7 -16 -31 5 -37 9 -3 43 -8 74 -11 32 -4 74 -15 95 -26 20 -10 51 -19 69 -19 17 0 37 -7 44 -15 7 -8 19 -15 26 -15 8 0 14 -4 14 -10 0 -5 13 -10 30 -10 20 0 33 -7 41 -21 10 -20 9 -21 -31 -14 -30 5 -40 4 -36 -4 4 -6 -2 -16 -13 -22 -10 -7 -17 -19 -14 -26 3 -8 -2 -13 -13 -13 -11 0 -32 -9 -49 -20 -16 -11 -38 -20 -48 -20 -11 0 -15 -5 -11 -11 4 -7 -1 -7 -16 1 -20 11 -21 10 -10 -9 9 -18 8 -22 -7 -28 -10 -4 -31 -20 -48 -37 -20 -20 -38 -30 -52 -28 -16 2 -23 -2 -23 -13 0 -9 -4 -13 -10 -10 -9 5 -14 -7 -12 -26 1 -4 -8 -15 -18 -24 -11 -10 -20 -24 -20 -32 0 -19 -18 -16 -23 5 -3 10 -5 7 -6 -10 0 -15 -7 -32 -13 -37 -69 -56 -118 -106 -118 -120 0 -20 -39 -55 -60 -56 -9 0 -16 -11 -18 -27 -2 -20 -9 -28 -23 -28 -12 0 -23 -10 -29 -25 -5 -14 -14 -25 -19 -25 -5 0 -11 -9 -14 -20 -3 -11 -12 -20 -21 -20 -9 0 -16 -6 -16 -14 0 -7 -9 -16 -20 -19 -11 -3 -20 -9 -19 -14 4 -22 -2 -44 -10 -38 -5 3 -22 -5 -36 -19 -15 -13 -36 -31 -47 -40 -10 -9 -17 -20 -15 -24 4 -8 -29 -42 -40 -42 -4 0 -8 -7 -9 -16 -3 -19 -14 -32 -14 -16 0 7 -4 12 -9 12 -6 0 -9 -12 -8 -27 1 -17 -3 -27 -10 -26 -7 2 -10 -4 -7 -12 4 -8 10 -15 16 -15 5 0 6 -5 2 -11 -4 -8 -9 -7 -15 2 -7 11 -13 9 -32 -11 -29 -31 -41 -60 -24 -60 16 -1 -34 -39 -50 -40 -7 0 -13 -4 -13 -10 0 -5 -9 -10 -20 -10 -11 0 -20 -4 -20 -10 0 -5 11 -10 25 -10 19 0 25 -5 24 -22 0 -13 -3 -17 -6 -10 -6 14 -49 16 -58 2 -8 -13 15 -48 36 -53 11 -3 19 2 22 12 2 9 4 -8 5 -36 1 -45 -3 -55 -21 -65 -12 -6 -28 -17 -35 -25 -7 -7 -32 -13 -55 -13 -107 -2 -256 -59 -402 -155 -75 -49 -156 -145 -154 -182 0 -14 2 -15 6 -3 29 80 121 167 243 230 36 18 72 36 80 41 39 20 123 42 203 53 117 17 146 37 167 123 6 24 22 55 35 70 24 27 25 28 40 9 8 -11 15 -32 15 -47 0 -36 49 -162 94 -242 39 -71 125 -157 156 -157 16 0 20 6 20 35 0 19 -4 35 -10 35 -5 0 -10 9 -10 20 0 11 -4 20 -9 20 -4 0 -11 18 -14 41 -4 32 0 49 21 84 15 25 33 45 40 45 6 0 12 9 12 19 0 11 4 21 8 23 15 6 52 75 52 97 0 15 6 21 21 21 21 0 79 50 79 69 0 6 5 11 12 11 16 0 128 117 128 135 0 8 7 15 15 15 8 0 22 11 31 25 10 15 26 25 40 25 15 0 24 6 24 16 0 21 52 94 68 94 6 0 12 5 12 11 0 7 14 26 30 43 138 141 200 207 200 212 0 10 58 64 69 64 6 0 11 9 11 20 0 11 6 23 14 26 8 3 20 19 26 35 7 16 16 29 21 29 5 0 14 11 19 25 8 22 15 25 57 25 l48 -1 28 -57 c25 -52 57 -142 57 -164 0 -4 -6 -8 -14 -8 -8 0 -20 -13 -28 -30 -7 -17 -21 -30 -30 -30 -14 0 -18 -8 -18 -35 0 -33 2 -35 35 -35 24 0 35 5 35 15 0 8 8 15 18 15 22 0 52 34 52 59 0 11 6 21 12 23 16 6 -5 139 -34 217 -31 81 -111 234 -128 242 -8 5 -51 30 -96 56 -119 71 -257 133 -297 133 -9 0 -38 9 -64 19 -27 10 -74 22 -104 26 -68 8 -91 20 -69 35 16 10 4 12 -17 3z"></path><path id="p15OBqZUK" d="M1578 4073 c12 -2 32 -2 45 0 12 2 2 4 -23 4 -25 0 -35 -2 -22 -4z"></path><path id="pKMBVqZgI" d="M1703 4063 c11 -3 16 -11 13 -19 -6 -16 19 -20 29 -5 6 11 -26 32 -47 30 -7 -1 -5 -3 5 -6z"></path><path id="pXNJFJA8m" d="M1290 3375 c-14 -8 -45 -15 -70 -16 -45 -2 -45 -2 -7 -6 21 -2 60 3 88 12 50 17 79 15 79 -5 0 -5 -8 -10 -18 -10 -11 0 -32 -11 -47 -25 -16 -13 -38 -26 -50 -28 -16 -4 -15 -5 5 -6 14 0 39 8 55 19 17 11 39 20 51 20 11 0 29 6 39 14 50 36 -65 65 -125 31z"></path><path id="p19tsPNWcH" d="M1165 3269 c-22 -10 -33 -18 -25 -18 8 0 31 8 50 19 45 25 27 24 -25 -1z"></path><path id="pCFgnWPCS" d="M560 2296 c-14 -37 -12 -127 5 -206 17 -82 19 -42 3 66 -9 63 -9 92 0 120 13 44 7 59 -8 20z"></path><path id="pLu8UCgaH" d="M1280 2293 c-26 -9 -70 -56 -70 -73 0 -9 -16 -33 -35 -53 -32 -33 -42 -37 -85 -37 -27 0 -68 7 -90 16 -32 13 -46 14 -68 5 -40 -17 -179 -158 -167 -170 12 -11 222 5 280 21 22 6 81 15 130 22 l90 11 3 53 c2 28 7 52 13 52 5 0 9 13 9 29 0 29 0 29 73 34 113 8 146 17 153 39 3 11 1 25 -5 31 -20 20 -190 35 -231 20z m-348 -188 c5 -6 8 -6 8 1 0 10 17 11 53 5 19 -3 4 -21 -19 -21 -14 0 -34 -5 -45 -10 -11 -7 -19 -7 -19 -1 0 5 -3 17 -6 26 -7 17 15 18 28 0z m-34 -42 c-4 -19 -35 -26 -35 -7 0 7 4 11 8 8 4 -2 10 0 14 6 10 15 17 12 13 -7z m-48 -49 c0 -11 -5 -14 -16 -10 -9 3 -18 6 -20 6 -3 0 -2 5 1 10 10 16 35 12 35 -6z"></path><path id="pFj7H3Snj" d="M581 1990 c-2 -14 -2 -39 -1 -56 1 -17 -6 -36 -14 -43 -9 -8 -16 -20 -16 -27 0 -8 -4 -14 -10 -14 -5 0 -10 12 -10 27 0 21 -3 24 -12 15 -9 -9 -9 -29 1 -89 80 -484 210 -898 336 -1074 20 -28 33 -55 29 -61 -4 -6 -3 -8 3 -5 5 3 16 -3 24 -15 28 -41 82 -103 100 -116 11 -7 19 -19 19 -27 0 -8 9 -13 20 -12 14 1 20 8 20 24 0 16 -6 23 -20 23 -13 0 -20 7 -20 20 0 10 -6 23 -12 27 -7 4 -18 17 -24 28 -6 11 -20 24 -32 30 -12 5 -22 17 -22 27 0 9 -9 20 -20 23 -13 4 -20 15 -20 30 0 13 -3 25 -7 27 -5 2 -26 38 -48 80 -22 43 -43 78 -47 78 -5 0 -8 5 -8 12 0 16 -72 202 -80 208 -4 3 -10 25 -13 50 -4 25 -13 67 -20 95 -19 67 -13 85 29 85 43 0 43 17 3 85 -16 28 -32 57 -35 65 -3 8 -15 37 -27 64 -14 30 -22 69 -22 104 l0 56 175 2 c148 1 183 4 231 21 30 11 78 24 107 28 29 4 54 11 57 15 3 5 39 14 80 21 69 11 75 14 75 35 0 14 -6 24 -15 24 -8 0 -25 11 -39 25 -30 30 -61 31 -118 6 -74 -33 -153 -61 -169 -61 -9 0 -45 -9 -79 -20 -47 -15 -90 -20 -175 -20 -149 0 -157 5 -166 121 -3 46 -7 73 -8 59z m89 -211 c0 8 6 9 18 2 9 -5 37 -7 62 -4 25 2 56 0 70 -6 19 -8 2 -10 -77 -9 -83 1 -103 4 -103 16 0 12 3 12 15 2 11 -9 15 -9 15 -1z"></path><path id="pUwZIqaqo" d="M549 1131 c36 -10 52 -27 44 -48 -4 -9 -28 -13 -91 -13 -47 0 -83 -2 -81 -4 8 -9 238 -15 243 -7 3 4 -10 22 -28 39 -24 22 -47 33 -77 37 -40 4 -41 4 -10 -4z"></path><path id="pDvotMQpj" d="M391 1028 c1 -18 5 -46 9 -63 5 -22 7 -13 6 32 0 35 -4 63 -8 63 -5 0 -7 -15 -7 -32z"></path><path id="p7b9nqPjt" d="M411 915 c-1 -5 6 -28 14 -50 20 -57 18 -79 -11 -114 -14 -17 -20 -29 -12 -26 29 11 50 64 44 108 -6 39 -35 105 -35 82z"></path><path id="pjiyYHDrG" d="M434 635 c15 -8 33 -15 40 -15 6 0 -2 7 -18 15 -15 8 -33 15 -40 15 -6 0 2 -7 18 -15z"></path><path id="pNA3dcxA2" d="M515 611 c17 -4 39 -13 51 -19 11 -6 45 -14 75 -18 30 -3 68 -12 86 -19 17 -8 58 -16 90 -20 32 -4 80 -13 107 -21 59 -17 108 -19 64 -3 -16 6 -25 16 -22 23 7 17 -40 25 -118 20 -31 -2 -60 1 -63 6 -3 6 -1 10 4 10 6 0 11 8 11 17 0 9 -3 13 -6 10 -4 -3 -15 -2 -25 3 -10 6 -20 6 -23 1 -3 -5 -28 -12 -55 -16 -39 -5 -59 -2 -96 14 -26 12 -62 21 -79 20 l-31 -1 30 -7z"></path><path id="p1edGNaR9" d="M525 469 c-9 -14 40 -85 90 -131 41 -38 89 -60 185 -83 30 -8 75 -20 100 -29 142 -46 177 -56 195 -56 11 0 30 -7 42 -15 12 -8 43 -18 70 -22 26 -3 51 -11 55 -17 17 -26 6 76 -13 120 -48 111 -70 154 -80 154 -6 0 -8 4 -5 8 3 5 -1 9 -9 9 -8 0 -12 -4 -10 -7 6 -10 -60 -3 -213 21 -137 21 -172 23 -172 10 0 -5 -10 -11 -22 -13 -40 -6 -33 -30 21 -68 15 -10 17 -16 8 -22 -7 -4 5 -8 28 -9 24 -1 31 -4 17 -6 -26 -5 -20 -23 9 -23 11 0 17 -4 14 -10 -9 -15 -48 -12 -71 5 -10 8 -36 15 -56 15 -20 0 -41 6 -45 14 -4 7 -18 18 -31 25 -23 12 -102 106 -102 121 0 5 12 11 28 13 l27 4 -27 2 c-15 0 -30 -4 -33 -10z"></path><path id="pdHOpCRSn" d="M625 455 c17 -8 46 -14 65 -14 31 1 28 2 -20 14 -69 18 -84 17 -45 0z"></path></g></g><g id="l2ZbQBnpID8DAEduwguTK5s" fill="rgb(91,139,233)" style="transform: none;"><g style="transform: none;"><path id="p12YicCUzp" d="M2347 4320 c6 -8 13 -26 15 -40 2 -14 9 -24 16 -22 8 1 11 -2 8 -7 -9 -14 33 -60 54 -58 27 2 18 26 -23 69 -38 39 -87 80 -70 58z"></path><path id="pvxmv5Z6K" d="M2315 4111 c6 -5 24 -13 40 -17 39 -9 30 0 -15 15 -19 6 -30 7 -25 2z"></path><path id="pAAMBYuWQ" d="M2477 4038 c38 -31 82 -60 115 -77 15 -8 26 -17 25 -20 0 -3 27 -63 61 -132 34 -69 62 -130 62 -135 0 -13 -49 69 -50 83 0 7 -12 29 -26 50 -23 33 -26 35 -20 12 4 -19 1 -31 -11 -40 -15 -12 -16 -12 -10 4 8 21 0 22 -19 2 -9 -8 -29 -15 -45 -15 -22 0 -32 -6 -39 -25 -5 -14 -14 -25 -19 -25 -5 0 -12 -8 -16 -19 -5 -16 -32 -49 -105 -127 -11 -12 -20 -24 -20 -28 0 -5 -59 -68 -200 -212 -16 -17 -30 -36 -30 -42 0 -6 -7 -9 -15 -6 -9 4 -15 0 -15 -9 0 -20 -130 -153 -147 -149 -7 2 -13 -6 -13 -18 0 -21 -109 -140 -128 -140 -7 0 -12 -5 -12 -11 0 -19 -58 -69 -79 -69 -15 0 -21 -6 -21 -21 0 -22 -37 -91 -52 -97 -4 -2 -8 -12 -8 -23 0 -10 -6 -19 -12 -19 -21 -1 -68 -88 -68 -126 0 -22 -5 -34 -13 -34 -8 0 -14 -7 -14 -15 0 -11 4 -12 11 -5 17 17 22 11 18 -24 -3 -28 -7 -32 -17 -23 -7 7 -11 15 -8 19 2 4 -3 5 -11 2 -11 -4 -16 0 -16 10 0 10 -11 27 -23 39 -13 12 -27 34 -31 50 -3 15 -11 27 -16 27 -5 0 -12 17 -16 38 -3 20 -13 48 -22 62 -9 14 -19 41 -23 60 -6 29 -7 31 -8 9 -3 -62 94 -266 157 -332 33 -35 115 -97 128 -97 3 0 16 -7 30 -17 42 -27 156 -63 202 -63 23 0 60 9 82 20 22 11 45 20 52 20 7 0 47 22 89 49 76 49 139 108 164 152 29 51 75 152 75 166 0 7 9 31 20 53 11 22 20 53 20 69 0 41 9 61 29 61 19 0 51 34 51 53 0 7 6 25 13 40 9 20 19 27 40 27 24 0 27 3 27 35 0 29 9 44 46 81 37 37 50 45 70 40 13 -4 24 -11 24 -16 0 -6 5 -10 10 -10 6 0 20 -9 32 -20 12 -11 28 -20 35 -20 7 0 13 -7 13 -15 0 -10 11 -15 35 -15 33 0 35 2 35 35 0 24 -5 35 -15 35 -8 0 -15 6 -15 13 0 7 -17 27 -37 43 -21 16 -51 41 -69 56 -38 34 -87 54 -92 39 -5 -16 -38 -13 -57 5 -14 14 -14 19 -3 31 17 16 88 27 88 13 0 -28 43 -2 104 62 l68 72 -5 56 c-6 62 -51 203 -67 208 -5 2 -10 11 -10 20 0 42 -88 192 -112 192 -5 0 -45 23 -89 50 -88 54 -106 63 -62 28z m-892 -1547 c-3 -5 2 -17 11 -25 8 -9 11 -16 5 -16 -6 0 -15 9 -21 19 -13 25 -13 31 1 31 5 0 8 -4 4 -9z"></path><path id="pMalicL5P" d="M2601 3864 c-1 -6 5 -17 13 -23 11 -9 15 -8 20 5 4 11 2 15 -8 11 -8 -3 -17 -1 -20 6 -3 8 -5 8 -5 1z"></path><path id="p19rO6Ojsv" d="M1376 3365 c4 -10 0 -15 -12 -15 -11 0 -26 -5 -34 -10 -11 -8 -7 -9 15 -4 36 8 57 23 49 35 -9 15 -24 10 -18 -6z"></path><path id="pCWeX94vF" d="M1302 2861 c-12 -17 -25 -45 -28 -63 -5 -31 -4 -31 10 6 8 22 24 49 36 60 21 21 21 21 36 1 l16 -20 -4 20 c-5 32 -41 30 -66 -4z"></path><path id="pnk4jflb" d="M2510 2743 c0 -24 71 -63 114 -63 29 0 36 4 36 19 0 21 -19 31 -56 31 -15 0 -24 6 -24 15 0 10 -11 15 -35 15 -27 0 -35 -4 -35 -17z"></path><path id="paS1ecdwA" d="M1241 2716 l-24 -31 28 27 c16 15 27 29 24 31 -2 3 -15 -10 -28 -27z"></path><path id="p1GKKb2MoG" d="M1280 2293 c-25 -9 -70 -56 -70 -73 0 -8 -14 -31 -32 -50 -26 -30 -40 -36 -87 -41 l-56 -6 56 -2 c47 -1 61 3 97 30 24 17 41 36 39 43 -9 23 23 64 58 76 34 11 71 10 160 -6 l40 -8 -40 -9 c-22 -5 -73 -11 -112 -14 -73 -5 -73 -5 -73 -34 0 -19 -5 -29 -14 -29 -9 0 -13 -7 -11 -20 2 -11 0 -20 -6 -20 -5 0 -9 -13 -9 -29 0 -17 -5 -33 -10 -36 -6 -4 -8 -10 -5 -15 3 -5 -25 -12 -62 -15 -38 -4 -83 -14 -102 -21 -18 -8 -45 -15 -60 -15 -18 -1 -20 -3 -8 -6 10 -3 49 2 85 11 37 8 94 18 127 21 33 3 86 15 117 27 72 26 148 19 148 -13 0 -11 -8 -22 -17 -25 -10 -3 -36 -13 -58 -23 -59 -27 -171 -72 -295 -120 -31 -11 -64 -21 -75 -21 -11 -1 -38 -8 -60 -17 -23 -9 -92 -18 -165 -22 l-125 -8 113 -1 c90 -2 124 2 169 18 32 11 70 20 86 20 16 0 41 6 55 14 15 7 53 22 86 32 52 16 61 16 84 3 42 -23 40 -47 -5 -55 -21 -4 -54 -15 -73 -25 -19 -11 -45 -19 -57 -19 -12 0 -44 -8 -70 -17 -26 -9 -68 -20 -93 -23 -43 -7 -43 -7 -9 -9 20 0 60 7 90 18 30 10 77 21 104 25 28 5 55 12 61 17 6 5 58 16 115 24 57 9 109 17 114 19 11 4 207 -10 273 -19 53 -8 61 7 34 67 -11 23 -23 59 -27 78 -4 19 -14 47 -21 62 -8 15 -14 36 -14 46 0 26 -42 103 -73 134 -37 37 -95 70 -108 62 -7 -4 -9 -3 -6 3 11 17 -162 31 -203 16z"></path><path id="p12Fimtui1" d="M918 2144 c-40 -21 -34 -27 7 -7 28 13 39 14 60 5 14 -7 31 -12 38 -12 7 1 -3 7 -22 15 -41 18 -49 18 -83 -1z"></path><path id="pFE1wzHlv" d="M806 2041 c-47 -47 -53 -72 -18 -70 15 1 15 2 0 6 -26 6 -23 12 29 65 26 26 45 48 42 48 -3 0 -26 -22 -53 -49z"></path><path id="pW40BLwYu" d="M583 1965 c0 -27 2 -38 4 -22 2 15 2 37 0 50 -2 12 -4 0 -4 -28z"></path><path id="p11OiDknWk" d="M858 1983 c18 -2 45 -2 60 0 15 2 0 4 -33 4 -33 0 -45 -2 -27 -4z"></path><path id="pUXxDiDkf" d="M2026 1864 c-8 -21 1 -34 25 -34 14 0 19 7 19 25 0 29 -34 36 -44 9z"></path><path id="p9vaTDymv" d="M591 1855 c-1 -25 17 -45 39 -45 12 1 11 3 -3 11 -10 6 -22 20 -27 32 -8 21 -9 21 -9 2z"></path><path id="pIVaVlAel" d="M614 1726 c-3 -8 -4 -25 -2 -38 3 -17 5 -13 9 15 5 38 2 47 -7 23z"></path><path id="pJNIUvYus" d="M758 1733 c29 -2 74 -2 100 0 26 2 2 3 -53 3 -55 0 -76 -1 -47 -3z"></path><path id="pFm1H3W6Y" d="M620 1592 c0 -5 9 -27 20 -50 11 -22 20 -46 20 -52 0 -5 6 -19 12 -30 10 -15 10 -22 0 -32 -9 -9 -12 -8 -12 5 0 9 -4 17 -10 17 -5 0 -10 -6 -10 -12 0 -9 -4 -8 -10 2 -9 13 -10 13 -10 0 -1 -12 -3 -11 -11 3 -5 9 -8 21 -5 25 2 4 -3 16 -11 27 -15 20 -15 20 -9 0 3 -11 17 -67 31 -125 42 -176 55 -220 101 -347 46 -127 127 -281 193 -368 50 -65 141 -168 141 -159 0 3 7 1 15 -6 13 -11 15 -8 15 14 0 16 -5 26 -15 26 -8 0 -15 8 -15 18 0 23 -40 62 -63 62 -12 0 -17 8 -17 25 0 14 -7 28 -15 31 -8 4 -15 13 -15 20 0 8 -7 17 -15 20 -8 4 -15 12 -15 20 0 8 -4 14 -9 14 -5 0 -12 11 -15 25 -4 14 -13 25 -21 25 -8 0 -15 9 -15 20 0 21 -67 163 -79 167 -11 5 0 158 12 165 18 12 27 9 27 -7 0 -10 11 -15 35 -15 24 0 35 5 35 14 0 8 -3 16 -7 18 -9 4 -28 37 -74 128 -18 36 -35 67 -38 70 -3 3 -21 34 -39 70 -18 36 -37 72 -42 80 -4 8 -16 34 -26 58 -15 37 -34 56 -34 34z"></path><path id="pPhYzcVvr" d="M982 1566 c-28 -25 -43 -51 -56 -96 -18 -58 -18 -64 -1 -123 20 -73 47 -107 87 -107 26 0 28 3 28 40 0 22 -4 40 -10 40 -10 0 -2 62 10 70 4 3 10 15 14 27 10 31 53 63 87 63 15 0 29 4 31 9 2 6 54 13 116 17 100 6 112 9 112 25 0 14 7 19 30 19 23 0 30 5 30 19 0 15 -11 19 -77 25 -42 3 -141 6 -219 6 l-144 0 -38 -34z"></path><path id="pbQ0tpczb" d="M593 1097 c0 -15 3 -27 8 -27 16 0 18 17 5 35 -13 17 -13 17 -13 -8z"></path><path id="pshVa9FgW" d="M560 595 c14 -8 30 -14 35 -14 6 0 -1 6 -15 14 -14 8 -29 14 -35 14 -5 0 1 -6 15 -14z"></path><path id="psScArRYP" d="M729 555 c18 -8 36 -15 40 -15 13 1 -45 29 -59 29 -8 0 0 -6 19 -14z"></path><path id="pnqzu5jCQ" d="M828 533 c12 -2 30 -2 40 0 9 3 -1 5 -23 4 -22 0 -30 -2 -17 -4z"></path><path id="p11X0Pe8ns" d="M905 520 c11 -5 27 -9 35 -9 9 0 8 4 -5 9 -11 5 -27 9 -35 9 -9 0 -8 -4 5 -9z"></path><path id="pqQuOUmLV" d="M885 414 c22 -9 86 -17 145 -19 58 -2 89 -1 70 1 -19 2 -79 11 -133 19 -119 18 -134 18 -82 -1z"></path><path id="pCW6kKAM1" d="M1145 385 c2 -11 24 -67 49 -124 25 -57 46 -107 46 -112 0 -15 -39 -10 -77 11 -21 11 -51 20 -68 20 -16 0 -43 7 -60 16 -16 8 -50 17 -75 19 l-45 4 40 -8 c22 -5 57 -17 77 -25 21 -9 48 -16 60 -16 13 0 33 -7 46 -15 12 -9 44 -19 72 -22 33 -4 50 -11 50 -19 0 -8 5 -14 10 -14 6 0 10 16 10 35 0 19 -4 35 -10 35 -5 0 -10 11 -10 24 0 41 -70 196 -89 196 -14 0 -14 2 -1 10 12 7 10 9 -7 8 -15 -2 -20 -8 -18 -23z"></path><path id="pldLnD8N4" d="M870 235 c33 -19 49 -19 24 0 -10 8 -26 14 -34 14 -9 0 -4 -6 10 -14z"></path></g></g><g id="l5MCkDShJCmMWu2LCh3oDf2" fill="rgb(131,99,235)" style="transform: none;"><g style="transform: none;"><path id="p80LCeSPl" d="M2466 4174 c19 -27 74 -61 74 -44 0 5 5 10 11 10 5 0 8 -4 5 -9 -3 -5 12 -18 34 -30 29 -15 38 -17 33 -6 -6 18 8 20 24 4 8 -8 13 -8 17 0 4 6 -3 15 -17 20 -14 6 -28 15 -32 21 -16 26 -86 60 -125 60 l-40 0 16 -26z m63 -13 c9 -6 10 -11 2 -15 -6 -4 -11 -2 -11 4 0 6 -4 8 -10 5 -5 -3 -10 -1 -10 4 0 13 10 14 29 2z"></path><path id="p1AuAEVhIT" d="M2597 4171 c10 -10 29 -24 43 -30 22 -11 21 -8 -8 18 -35 33 -65 43 -35 12z"></path><path id="pQEMRkXNK" d="M2619 3937 c17 -45 49 -90 78 -108 20 -14 23 -19 11 -19 -22 0 -22 -1 3 -61 26 -60 49 -65 49 -11 l0 37 58 -60 c87 -91 142 -156 171 -200 14 -22 28 -42 31 -45 18 -18 62 -83 70 -105 l10 -27 -42 7 c-24 4 -69 16 -100 26 -68 23 -276 27 -296 7 -28 -28 -13 -38 61 -38 75 0 293 -39 362 -64 67 -25 115 -19 115 15 0 35 -128 233 -248 381 -66 83 -194 204 -266 252 -64 43 -79 45 -67 13z"></path><path id="pIs4d99NM" d="M2754 3653 c34 -119 37 -133 26 -153 -10 -18 -8 -20 20 -20 28 0 30 2 30 40 0 22 -4 40 -10 40 -5 0 -10 11 -10 24 0 13 -3 38 -6 55 -5 25 -12 31 -31 31 -18 0 -23 -4 -19 -17z"></path><path id="p17SiQQabU" d="M2620 3295 c0 -8 5 -15 10 -15 6 0 10 -4 10 -10 0 -5 -7 -10 -15 -10 -8 0 -15 -4 -15 -10 0 -13 13 -13 27 1 8 8 23 1 57 -27 25 -21 43 -40 40 -43 -3 -3 -10 1 -15 9 -8 12 -9 9 -7 -10 3 -21 8 -25 35 -26 18 0 36 -4 40 -9 5 -4 2 -5 -5 0 -10 5 -13 1 -10 -16 2 -19 10 -25 35 -27 28 -3 32 -7 35 -35 3 -29 6 -32 41 -35 l38 -3 -3 38 c-3 35 -6 38 -35 41 -28 3 -32 7 -35 35 -2 27 -8 33 -30 35 -16 2 -28 10 -28 17 0 12 4 11 28 -1 15 -7 41 -14 58 -14 17 0 37 -6 43 -14 7 -8 28 -17 49 -20 32 -6 96 -32 142 -58 8 -4 26 -13 40 -18 14 -6 32 -14 40 -20 8 -5 34 -19 58 -31 23 -12 42 -25 42 -30 0 -5 6 -9 13 -9 7 0 23 -9 35 -20 12 -11 25 -20 31 -20 5 0 11 -4 13 -9 4 -11 141 -121 151 -121 4 0 7 -5 7 -11 0 -7 8 -19 18 -28 10 -9 32 -35 51 -58 18 -24 39 -43 47 -43 8 0 14 -10 14 -25 0 -14 4 -25 9 -25 5 0 13 -9 16 -20 3 -11 12 -26 20 -34 12 -11 6 -14 -37 -19 -27 -4 -56 -12 -64 -18 -14 -12 -20 -79 -6 -79 4 0 20 16 35 35 31 39 47 40 100 3 l27 -19 1 33 c2 48 1 52 -27 100 -119 203 -332 394 -575 515 -70 35 -133 63 -140 63 -8 0 -25 6 -39 13 -14 7 -65 26 -115 41 -49 16 -115 36 -145 46 -89 30 -110 33 -110 15z"></path><path id="p14bexLXCn" d="M2640 3229 c0 -5 5 -7 10 -4 6 3 10 -1 10 -9 0 -10 9 -16 23 -16 l22 0 -25 20 c-28 22 -40 25 -40 9z"></path><path id="pUE64uMGZ" d="M2910 2800 c0 -39 1 -40 35 -40 34 0 35 1 35 40 0 39 -1 40 -35 40 -34 0 -35 -1 -35 -40z"></path><path id="pX4LHxtEf" d="M2890 2650 c0 -21 6 -43 13 -47 6 -4 17 -17 23 -28 6 -11 27 -28 46 -37 51 -24 142 -111 174 -166 23 -39 29 -61 32 -134 4 -80 6 -88 25 -88 19 0 20 4 14 101 -5 87 -10 107 -36 152 -35 61 -98 125 -167 170 -44 29 -49 36 -52 75 -3 41 -4 42 -38 42 -33 0 -34 -1 -34 -40z"></path><path id="pIjVVxOXW" d="M3580 2370 c0 -45 23 -57 34 -17 11 41 7 57 -14 57 -17 0 -20 -7 -20 -40z"></path><path id="p1CdKTLILu" d="M2766 2158 c-38 -22 -88 -27 -128 -14 -23 9 -38 10 -38 4 0 -6 -7 -5 -15 2 -13 11 -15 8 -15 -18 0 -29 3 -31 56 -42 50 -11 108 -8 170 6 15 4 31 -5 54 -28 l34 -33 -28 -3 c-16 -2 -50 4 -77 12 -28 10 -82 16 -132 16 -46 0 -106 7 -133 15 -59 18 -200 20 -210 4 -5 -9 4 -10 30 -5 49 9 140 -2 163 -21 16 -13 15 -14 -12 -7 -16 5 -57 8 -90 9 -48 0 -60 -3 -63 -17 -2 -10 5 -19 18 -23 32 -10 95 -55 78 -55 -9 0 -21 7 -28 15 -7 8 -21 15 -32 15 -10 0 -30 7 -43 16 -22 15 -25 15 -25 1 0 -9 9 -19 21 -22 12 -4 37 -18 56 -31 20 -13 42 -24 50 -24 8 0 23 -9 35 -20 12 -11 32 -20 44 -20 12 0 27 -7 34 -15 7 -9 32 -20 57 -26 74 -19 56 -27 -30 -13 -109 18 -162 16 -67 -3 86 -17 123 -39 50 -30 l-45 5 45 -12 c214 -60 321 -78 460 -74 l115 3 3 -37 c2 -22 -5 -56 -17 -84 -12 -26 -21 -50 -21 -55 0 -5 -42 -81 -92 -169 -51 -89 -98 -170 -104 -181 -37 -67 -59 -46 -44 42 31 182 31 181 9 240 -12 35 -36 71 -60 95 l-40 39 -227 -3 c-202 -2 -569 -26 -581 -38 -2 -2 45 -5 105 -5 l109 -2 -125 -12 -125 -12 95 -4 c64 -3 88 -7 75 -12 -53 -23 -66 -32 -71 -53 -4 -14 -16 -24 -35 -28 -21 -4 -29 -11 -29 -26 0 -11 -7 -20 -15 -20 -17 0 -95 -72 -95 -88 0 -6 -11 -22 -25 -36 -14 -14 -25 -33 -25 -43 0 -10 -8 -23 -17 -29 -10 -6 -24 -29 -32 -50 -8 -21 -19 -42 -25 -46 -6 -4 -38 -8 -71 -8 -69 0 -107 -8 -99 -21 3 -5 17 -9 32 -10 24 0 25 -1 7 -9 -14 -6 0 -9 47 -9 66 -1 399 -36 448 -47 109 -25 -324 -39 -640 -21 -74 4 -177 16 -229 27 -96 20 -138 20 -60 0 67 -17 68 -18 8 -19 -42 -1 -62 4 -79 19 -27 24 -30 24 -30 7 0 -20 90 -47 190 -57 47 -6 101 -14 120 -20 19 -5 53 -10 75 -10 58 0 73 -12 46 -39 -11 -11 -30 -21 -41 -21 -12 0 -25 -10 -32 -25 -6 -13 -25 -31 -42 -39 -53 -27 -76 -52 -76 -85 0 -16 -4 -33 -10 -36 -5 -3 -10 -41 -10 -83 l0 -77 -91 3 c-67 3 -92 7 -96 18 -3 8 -13 14 -23 14 -10 0 -20 9 -23 20 -3 11 -12 20 -21 20 -9 0 -16 8 -16 20 0 16 -7 20 -35 20 -31 0 -34 -2 -26 -17 6 -10 37 -46 70 -80 46 -48 67 -63 88 -63 16 0 44 -5 63 -10 19 -6 102 -15 185 -21 160 -11 211 -24 135 -32 -25 -3 -83 -10 -131 -16 -104 -13 -204 -14 -174 -1 18 8 17 9 -7 7 -29 -1 -30 -15 -4 -65 8 -16 29 -65 46 -108 52 -131 54 -135 80 -140 14 -3 50 -12 80 -20 30 -9 95 -22 143 -30 49 -8 98 -21 110 -29 14 -9 45 -15 84 -15 54 0 63 3 63 18 0 50 -54 69 -195 71 -42 1 -69 7 -90 21 -16 11 -44 20 -61 20 -27 0 -32 4 -38 30 -3 17 -10 30 -16 30 -6 0 -18 7 -26 15 -14 13 -13 15 8 15 13 0 29 9 36 20 7 11 18 20 25 20 7 0 18 9 25 20 8 13 23 20 42 20 20 0 30 5 30 16 0 20 59 44 110 44 22 0 56 7 75 14 31 13 35 20 35 50 0 40 -28 66 -72 66 -34 0 -37 22 -8 47 11 10 20 23 20 30 0 7 4 13 9 13 5 0 13 9 16 20 7 22 141 160 155 160 5 0 11 8 14 18 3 9 37 32 76 50 38 18 70 38 70 45 0 24 44 39 134 44 100 5 135 15 184 51 26 20 32 31 32 63 0 48 -21 59 -116 59 -57 0 -64 2 -64 20 0 11 11 27 25 36 14 9 25 23 25 31 0 8 12 28 28 44 15 15 45 49 67 73 22 25 46 45 53 46 6 0 12 7 12 15 0 9 7 18 15 22 9 3 22 17 29 32 10 18 34 34 75 50 34 13 61 28 61 33 0 4 6 8 14 8 7 0 19 7 26 15 7 8 23 15 36 15 13 0 24 5 24 11 0 22 61 0 93 -33 31 -32 32 -35 35 -144 3 -84 0 -120 -12 -149 -21 -51 -21 -141 0 -149 41 -16 76 -6 110 32 19 20 37 47 40 60 3 12 10 22 14 22 4 0 13 15 21 33 7 17 16 34 20 37 13 9 137 265 154 318 18 56 23 150 10 215 -6 29 -4 37 8 37 16 0 27 29 27 73 0 41 -25 33 -38 -12 -7 -21 -20 -45 -29 -52 -21 -18 -193 -18 -247 0 -21 8 -64 19 -95 26 -85 19 -178 54 -331 125 -64 29 -100 51 -100 61 0 13 42 9 175 -15 50 -9 126 -23 170 -31 44 -8 133 -17 198 -21 100 -5 117 -4 117 9 0 24 -125 151 -140 142 -8 -5 -11 -4 -6 3 4 6 -6 18 -23 27 -35 18 -49 18 -75 3z"></path><path id="pzNqJfrT0" d="M3570 2130 c0 -45 23 -57 34 -17 11 41 7 57 -14 57 -17 0 -20 -7 -20 -40z"></path><path id="p18LNQ9Tp8" d="M3176 2108 c-10 -38 -7 -48 14 -48 16 0 20 7 20 35 0 40 -24 49 -34 13z"></path><path id="pNGs3nyna" d="M3560 2053 c0 -10 -3 -42 -6 -70 -6 -44 -4 -53 9 -53 16 0 21 16 32 93 7 43 6 47 -14 47 -13 0 -21 -6 -21 -17z"></path><path id="pJkEijXEu" d="M3166 1978 c-10 -38 -7 -48 14 -48 16 0 20 7 20 35 0 40 -24 49 -34 13z"></path><path id="pObPC25LG" d="M1368 1113 c12 -2 32 -2 45 0 12 2 2 4 -23 4 -25 0 -35 -2 -22 -4z"></path><path id="p17cYKWHvn" d="M3570 866 c0 -7 9 -16 20 -19 11 -3 18 -1 14 4 -3 5 0 9 5 9 6 0 11 5 11 10 0 6 -11 10 -25 10 -15 0 -25 -6 -25 -14z"></path><path id="pr7GQe7sv" d="M2295 89 c-22 -4 -84 -12 -137 -17 -98 -9 -128 -22 -128 -56 0 -22 108 -23 116 -2 3 9 35 18 87 25 116 17 167 31 167 47 0 16 -40 17 -105 3z"></path></g></g><g id="l7Wd0QJFIPvxIdanizFBrrX" fill="rgb(104,127,235)" style="transform: none;"><g style="transform: none;"><path id="pH95K7rww" d="M2370 4267 c0 -18 45 -59 54 -50 4 4 4 0 1 -9 -5 -13 -1 -16 14 -15 23 1 30 37 8 37 -8 0 -20 11 -27 25 -14 26 -50 35 -50 12z"></path><path id="p128ET3q13" d="M2620 3932 c0 -5 11 -22 25 -38 25 -29 25 -29 25 -5 0 13 -8 30 -17 37 -21 15 -33 18 -33 6z"></path><path id="pYRDepafy" d="M2699 3787 c6 -8 8 -17 4 -20 -3 -4 -1 -7 6 -7 7 0 9 -4 6 -10 -3 -5 -2 -10 3 -10 5 0 9 -6 9 -12 0 -23 32 -88 42 -88 6 0 11 16 11 35 0 24 -5 35 -15 35 -10 0 -15 10 -15 29 0 45 -10 61 -37 61 -20 0 -23 -3 -14 -13z"></path><path id="p11sZs1D8c" d="M2780 3563 c1 -19 22 -53 34 -53 3 0 6 16 6 35 0 28 -4 35 -20 35 -13 0 -20 -7 -20 -17z"></path><path id="pX8Ln22Xf" d="M2730 3446 l-44 -46 36 0 c43 0 60 18 56 60 l-3 31 -45 -45z"></path><path id="pZIch9BJT" d="M2545 3310 c-9 -15 -7 -16 35 -24 31 -5 32 -5 10 4 -13 6 -27 16 -31 22 -4 7 -9 6 -14 -2z"></path><path id="pzwyow1K3" d="M2635 3266 c-11 -6 -21 -12 -23 -12 -2 -1 -5 -14 -8 -29 -3 -15 -23 -44 -44 -65 -22 -21 -40 -45 -40 -52 0 -7 -12 -25 -27 -39 -34 -30 -53 -62 -53 -89 0 -13 -5 -18 -15 -14 -11 4 -13 2 -9 -9 5 -14 -11 -32 -29 -32 -5 0 -10 -30 -11 -66 -1 -47 -6 -71 -19 -83 -10 -11 -17 -32 -16 -54 1 -37 1 -37 8 -7 4 17 15 44 24 62 9 18 17 47 17 65 1 109 96 49 114 -72 5 -36 12 -48 37 -63 17 -9 36 -14 41 -10 7 3 8 1 4 -5 -4 -7 -2 -12 3 -12 6 0 11 6 11 13 0 8 3 8 8 1 4 -6 32 -11 62 -13 30 -1 63 -4 73 -7 13 -4 17 1 17 20 0 14 -4 26 -10 26 -5 0 -10 9 -10 20 0 11 -6 20 -14 20 -8 0 -18 9 -21 20 -3 11 -13 20 -21 20 -9 0 -14 10 -14 28 0 38 19 102 30 102 6 0 10 7 10 16 0 24 43 60 79 67 28 6 31 4 31 -18 0 -21 5 -25 31 -25 40 0 58 -23 59 -72 0 -37 1 -38 35 -38 l35 0 0 48 c0 88 -19 126 -112 223 -25 27 -51 49 -57 49 -6 0 -11 4 -11 10 0 5 -11 12 -25 16 -13 3 -27 14 -30 23 -8 25 -85 51 -110 37z m39 -22 c3 -8 11 -12 17 -8 8 4 9 3 5 -4 -6 -10 28 -36 49 -37 5 0 10 -7 11 -15 0 -8 -1 -10 -3 -3 -2 7 -11 9 -19 6 -8 -3 -14 -1 -14 4 0 12 -56 44 -64 36 -11 -11 -45 -10 -43 1 3 14 29 35 43 36 7 0 15 -7 18 -16z"></path><path id="pqlKEnFAo" d="M2896 2788 c-11 -96 -10 -98 29 -98 30 0 35 3 35 23 0 12 3 46 6 75 l7 52 -35 0 c-35 0 -35 0 -42 -52z"></path><path id="poBzOakLH" d="M2288 2694 c-8 -7 2 -44 12 -44 4 0 6 -12 4 -27 -2 -16 -1 -21 2 -13 4 8 14 29 22 45 14 28 14 29 -1 16 -10 -7 -18 -11 -18 -7 -1 3 -2 10 -3 15 -2 13 -12 22 -18 15z"></path><path id="pCHGEscxt" d="M2236 2668 c-3 -13 -6 -29 -6 -37 0 -23 35 14 37 39 2 27 -23 26 -31 -2z"></path><path id="pdhXQb0Wx" d="M2192 2571 c-27 -23 -39 -41 -33 -45 6 -4 17 -4 24 1 6 4 20 6 30 5 10 -2 17 3 17 12 0 9 -5 16 -12 16 -6 0 -4 6 6 13 11 8 17 19 15 26 -3 7 -22 -4 -47 -28z"></path><path id="pR3qlP0dq" d="M2276 2571 c-10 -11 -16 -26 -13 -33 4 -10 6 -10 6 1 1 8 8 23 18 33 9 10 14 18 11 18 -3 0 -13 -9 -22 -19z"></path><path id="pr8Qlrsaz" d="M2118 2488 c9 -9 15 -9 24 0 9 9 7 12 -12 12 -19 0 -21 -3 -12 -12z"></path><path id="pVG40YhEU" d="M2185 2469 c-11 -17 -2 -18 19 -3 17 12 17 14 4 14 -9 0 -20 -5 -23 -11z"></path><path id="pcPGfiHY8" d="M2119 2413 c-16 -19 -18 -23 -4 -12 11 9 29 21 40 27 15 9 16 11 4 12 -8 0 -26 -12 -40 -27z"></path><path id="pdGAqzfd" d="M2315 2274 c-11 -3 -30 -7 -42 -10 -15 -3 -23 -12 -23 -26 0 -19 4 -20 53 -14 28 3 60 6 70 6 13 0 18 6 15 23 -3 23 -30 30 -73 21z"></path><path id="pmfhV4rIU" d="M2040 1888 c-24 -39 -21 -53 8 -52 114 3 112 3 112 27 0 15 -11 27 -36 40 -49 24 -61 22 -84 -15z"></path><path id="pp9jjSkif" d="M970 1555 c-18 -19 -32 -36 -29 -38 2 -2 19 14 38 35 42 48 36 50 -9 3z"></path><path id="p1AYArDGqE" d="M1383 1578 c-34 -9 -43 -23 -20 -31 6 -2 -40 -7 -103 -11 -63 -4 -116 -11 -118 -17 -2 -5 -17 -9 -33 -9 -33 0 -99 -56 -92 -77 3 -7 0 -13 -6 -13 -6 0 -11 -12 -12 -27 l-1 -28 -8 25 c-7 23 -8 23 -10 -10 -1 -19 -1 -39 0 -45 10 -40 7 -52 -10 -48 -10 3 -23 14 -29 26 -11 21 -11 21 -5 -3 7 -30 92 -120 114 -120 8 0 29 -9 45 -20 18 -12 47 -20 73 -20 23 0 59 -7 79 -15 46 -19 43 -21 43 20 0 19 -4 35 -10 35 -5 0 -10 11 -10 24 0 13 -4 26 -9 28 -5 2 -5 28 -1 60 10 68 50 118 95 118 15 0 33 7 41 15 8 8 34 20 57 26 23 6 63 17 89 25 26 8 65 14 87 14 37 0 41 2 41 25 0 18 -6 26 -22 29 -176 32 -221 36 -265 24z"></path><path id="pOlO0wm4A" d="M912 1415 c0 -16 3 -39 8 -50 8 -18 9 -18 8 5 0 14 -4 36 -8 50 -8 24 -8 24 -8 -5z"></path><path id="pmDhoLUMk" d="M813 1232 c5 -21 3 -23 -19 -18 -22 6 -25 4 -20 -12 5 -13 -1 -22 -19 -30 -15 -7 -25 -8 -25 -2 0 6 7 10 15 10 8 0 15 5 15 11 0 6 -16 1 -37 -11 -29 -17 -38 -18 -44 -8 -15 22 -10 4 25 -106 38 -115 141 -324 186 -377 l29 -34 1 38 c0 20 -4 37 -10 37 -5 0 -10 6 -10 14 0 8 -7 22 -16 31 -17 16 -19 35 -16 122 2 51 3 53 47 79 25 14 45 30 45 35 0 5 9 13 21 17 19 7 17 11 -28 47 -61 49 -85 74 -101 105 -7 14 -20 36 -28 50 -16 25 -16 25 -11 2z"></path><path id="p10OZs0ph1" d="M936 625 c9 -14 21 -22 27 -18 5 3 7 1 3 -5 -3 -6 -2 -13 4 -17 6 -4 10 8 10 29 0 33 -2 36 -30 36 -30 0 -30 0 -14 -25z"></path><path id="p5tX8YcAs" d="M1010 552 c0 -17 28 -45 49 -49 24 -3 30 24 9 45 -13 13 -58 16 -58 4z"></path><path id="pqSIOGiMy" d="M1151 368 c16 -31 24 -37 16 -13 -6 17 -4 17 13 -4 14 -17 20 -19 20 -8 0 31 -13 47 -36 47 -22 0 -24 -2 -13 -22z"></path><path id="p16OKGO2t" d="M1190 282 c0 -6 6 -17 13 -24 8 -7 12 -20 9 -28 -3 -12 -2 -12 8 -3 10 9 8 17 -9 39 -11 15 -21 22 -21 16z"></path><path id="pxDgWU8sl" d="M1237 160 c3 -11 12 -20 20 -20 10 0 13 6 9 16 -3 9 -6 18 -6 20 0 2 -6 4 -14 4 -9 0 -12 -7 -9 -20z"></path></g></g><g id="lc8Sf49RCRC3ZG1JWeX9ML" fill="rgb(111,121,235)" style="transform: none;"><g style="transform: none;"><path id="p117GG9zrj" d="M2400 4273 c0 -7 -7 -10 -17 -7 -11 4 -14 2 -8 -3 6 -4 15 -17 22 -28 6 -11 16 -19 22 -17 6 1 10 -3 9 -10 -2 -7 2 -12 9 -13 6 0 15 -3 19 -7 14 -15 34 -8 34 13 0 13 -11 25 -34 34 -19 8 -40 23 -45 32 -6 10 -11 13 -11 6z"></path><path id="pl6hRS5qD" d="M2620 3932 c0 -5 9 -17 20 -27 16 -14 20 -15 20 -4 0 16 -19 39 -32 39 -4 0 -8 -4 -8 -8z"></path><path id="ppyQRHd9N" d="M2724 3736 c6 -32 24 -66 36 -66 11 0 13 49 4 74 -3 9 -15 16 -25 16 -15 0 -18 -6 -15 -24z"></path><path id="p13O1QPZ4y" d="M2765 3628 c1 -13 4 -24 5 -25 3 -4 7 -20 9 -38 2 -28 31 -17 31 13 0 45 -11 72 -30 72 -12 0 -17 -7 -15 -22z"></path><path id="p1BvjSxBoy" d="M2795 3530 c7 -11 -22 -47 -95 -117 l-55 -53 30 0 c38 0 75 25 75 51 0 13 7 19 21 19 12 0 23 8 26 20 3 11 9 20 14 20 5 0 9 16 9 35 0 25 -4 35 -16 35 -8 0 -13 -4 -9 -10z"></path><path id="pIZQHJDnJ" d="M2664 3255 c8 -9 17 -14 19 -13 1 2 18 -13 36 -32 18 -19 30 -28 26 -20 -4 8 3 3 16 -11 13 -15 32 -29 42 -32 9 -4 17 -12 17 -19 0 -7 16 -24 35 -37 19 -13 33 -27 30 -31 -3 -4 9 -25 25 -45 17 -21 30 -40 30 -44 0 -6 -41 40 -78 89 -13 16 -31 30 -40 30 -12 0 -9 -7 13 -25 l30 -25 -35 17 c-19 9 -41 23 -48 30 -24 24 -26 13 -2 -12 22 -23 22 -25 4 -26 -10 -1 -25 -1 -32 0 -17 3 -72 -54 -72 -74 0 -9 -4 -14 -9 -11 -13 9 -42 -127 -35 -163 4 -17 13 -31 21 -31 8 0 11 -4 8 -10 -3 -5 -2 -10 3 -10 5 0 12 -10 16 -22 5 -19 8 -21 16 -8 8 13 10 12 10 -4 0 -20 26 -45 48 -46 7 0 20 -7 28 -15 9 -8 28 -15 43 -15 16 0 40 -9 54 -20 14 -11 30 -20 35 -20 5 0 13 -8 17 -17 9 -21 44 232 44 325 1 36 -5 76 -13 90 -7 15 -19 40 -27 55 -7 15 -24 33 -37 40 -14 7 -30 21 -36 31 -16 28 -62 76 -72 76 -5 0 -15 9 -22 20 -7 11 -20 20 -30 20 -9 0 -26 7 -36 15 -11 8 -28 15 -39 15 -17 0 -17 -2 -3 -15z"></path><path id="pdNpLWj3j" d="M2300 2270 c-53 -9 -150 -77 -150 -105 0 -7 -8 -20 -19 -29 -10 -9 -22 -36 -25 -59 -4 -23 -13 -48 -20 -57 -7 -8 -16 -35 -20 -60 -4 -24 -12 -50 -18 -57 -8 -10 -6 -13 6 -13 9 0 16 -5 16 -11 0 -5 5 -7 10 -4 6 3 13 -1 16 -10 4 -9 12 -14 20 -11 7 3 14 0 16 -6 3 -8 14 -8 38 0 19 6 68 14 107 18 57 5 78 3 96 -9 12 -8 44 -16 70 -18 40 -4 47 -2 47 14 0 28 -21 43 -72 51 -26 4 -49 13 -52 21 -3 8 -12 15 -21 15 -8 0 -15 7 -15 15 0 8 -4 15 -10 15 -5 0 -10 9 -10 20 0 15 -7 20 -25 20 -32 0 -31 20 2 44 19 14 44 20 85 20 39 1 58 5 58 14 0 7 15 12 41 12 23 0 47 7 55 15 9 8 24 15 35 15 25 0 25 26 -1 40 -11 6 -20 21 -20 33 0 12 -11 34 -23 48 -21 24 -30 26 -103 25 -43 0 -95 -3 -114 -6z"></path><path id="p14GK3oHJL" d="M1610 1548 l35 -12 -55 -7 c-101 -13 -230 -52 -230 -70 0 -5 -14 -9 -31 -9 -48 0 -91 -49 -97 -111 -2 -27 -9 -49 -14 -49 -13 0 0 -73 14 -81 6 -4 0 -10 -13 -14 -22 -7 -22 -8 12 -27 31 -18 32 -19 7 -13 -39 8 -35 -2 10 -22 22 -10 76 -19 137 -23 55 -3 108 -10 118 -14 14 -7 17 -3 17 27 0 20 -7 42 -15 51 -9 9 -15 34 -15 65 0 48 2 51 25 51 16 0 25 6 25 15 0 8 4 15 8 15 4 0 31 23 60 50 34 33 61 50 78 50 13 0 27 6 30 14 3 7 24 19 47 25 23 7 56 17 72 23 17 5 40 12 53 15 15 4 22 13 22 28 0 22 -3 23 -107 24 -60 1 -135 3 -168 6 -56 5 -58 4 -25 -7z"></path><path id="p64ePan5D" d="M917 1086 c3 -14 9 -26 14 -26 32 0 -51 -69 -91 -75 -8 -1 -16 -7 -16 -13 -4 -35 -5 -36 -15 -19 -16 27 -24 20 -26 -26 -2 -42 23 -120 37 -112 4 2 7 -2 7 -9 0 -41 162 -256 193 -256 5 0 10 18 10 40 0 33 -3 40 -20 40 -15 0 -20 7 -20 24 0 18 -7 26 -22 29 l-23 4 23 8 c14 5 22 15 22 31 0 13 6 24 13 24 19 0 47 37 47 62 0 26 27 47 62 48 15 0 30 5 33 10 3 6 17 10 30 10 16 0 30 10 42 30 9 17 21 30 26 30 5 0 7 10 5 23 -3 20 -10 22 -79 27 -54 4 -81 10 -93 23 -10 9 -30 17 -45 17 -16 0 -34 6 -41 14 -6 8 -21 16 -33 18 -12 2 -22 8 -22 15 0 7 -5 17 -11 23 -9 9 -10 5 -7 -14z"></path><path id="pg2Th2dZS" d="M751 946 c7 -15 15 -23 17 -16 3 7 -3 19 -13 28 -15 16 -16 15 -4 -12z"></path><path id="pX0YAcxom" d="M1150 380 c0 -5 5 -10 11 -10 5 0 8 -4 5 -8 -2 -4 4 -8 14 -9 13 -1 18 5 17 18 -1 13 -9 19 -24 19 -13 0 -23 -4 -23 -10z"></path><path id="p16jBnRtad" d="M1200 261 c0 -6 5 -11 11 -11 5 0 7 -4 4 -10 -3 -5 -1 -10 4 -10 16 0 13 16 -4 30 -10 9 -15 9 -15 1z"></path><path id="p1Dh6Cg3vI" d="M1228 214 c-8 -12 18 -74 30 -74 6 0 9 11 8 24 0 13 -4 22 -9 19 -4 -2 -11 6 -15 18 -5 12 -11 18 -14 13z"></path></g></g><g id="l5dLV3LnHgf1imxdSGwMMXe" fill="rgb(122,111,238)" style="transform: none;"><g style="transform: none;"><path id="p1HBDvcFTE" d="M2413 4220 c8 -14 18 -24 23 -23 5 1 16 -5 26 -14 9 -8 28 -16 42 -17 15 -2 35 -11 45 -20 9 -9 26 -16 35 -16 10 0 31 -9 46 -20 18 -13 31 -16 35 -10 3 6 -2 13 -12 17 -10 3 -29 16 -43 28 -33 29 -100 69 -100 59 0 -4 -10 1 -21 12 -16 14 -23 15 -26 7 -7 -19 -33 -16 -50 5 -13 15 -13 14 0 -8z"></path><path id="pKuCns4wb" d="M2661 3863 c14 -38 51 -103 59 -103 13 0 9 57 -6 93 -13 27 -23 37 -40 37 -21 0 -23 -2 -13 -27z"></path><path id="pHa9GRlAl" d="M2741 3693 c5 -16 12 -35 16 -43 8 -20 8 -20 17 -55 4 -16 12 -40 17 -53 7 -19 4 -30 -17 -58 l-26 -34 30 0 c29 0 30 1 37 67 5 46 4 68 -4 71 -6 2 -11 15 -11 29 0 14 -5 43 -12 64 -9 31 -16 39 -34 39 -21 0 -23 -3 -13 -27z"></path><path id="pJKmSBvF6" d="M2686 3394 l-29 -29 28 -3 c34 -4 37 -1 33 33 l-3 28 -29 -29z"></path><path id="pLcwMdtQZ" d="M2650 3274 c0 -7 27 -34 34 -34 3 0 15 -8 25 -17 11 -10 34 -29 51 -43 97 -76 190 -197 190 -246 0 -8 7 -14 15 -14 22 0 19 63 -5 110 -13 26 -27 40 -40 40 -14 0 -20 7 -20 23 0 31 -39 67 -73 67 -22 0 -27 5 -27 25 0 20 -5 25 -24 25 -14 0 -26 7 -28 18 -4 15 -98 59 -98 46z"></path><path id="pvanB73pv" d="M2948 2863 c-1 -10 -3 -31 -4 -48 -2 -16 -7 -56 -13 -87 -10 -63 -5 -98 14 -98 11 0 35 147 35 219 0 34 -29 45 -32 14z"></path><path id="pDwsHpyWH" d="M2440 2170 c0 -7 -8 -9 -20 -5 -26 8 -90 -13 -87 -28 1 -7 -9 -11 -25 -9 -22 3 -28 -1 -28 -16 0 -10 -11 -24 -24 -31 -26 -14 -37 -50 -29 -94 7 -36 23 -45 40 -22 15 22 17 16 3 -19 -8 -21 -6 -28 12 -41 17 -11 24 -12 30 -2 6 9 10 9 20 -1 9 -9 9 -12 -1 -12 -18 0 -5 -17 19 -23 11 -3 18 -1 14 4 -3 5 0 9 5 9 6 0 11 -4 11 -9 0 -5 11 -11 25 -13 14 -3 25 -1 25 6 0 8 2 8 8 0 11 -17 43 -31 92 -38 24 -4 50 -12 57 -17 18 -15 133 -25 133 -11 0 22 -52 71 -83 78 -17 3 -48 15 -67 24 -70 36 -127 60 -142 60 -9 0 -21 7 -28 15 -7 8 -21 15 -32 15 -31 0 -68 30 -68 56 0 17 6 24 20 24 11 0 20 5 20 12 0 6 3 8 7 5 3 -4 18 0 32 10 23 14 24 14 13 0 -12 -14 -8 -16 35 -22 26 -4 59 -14 73 -23 17 -11 56 -17 120 -20 52 -2 104 -9 115 -15 17 -9 236 -29 243 -22 2 1 -27 32 -63 68 -70 69 -108 87 -146 67 -12 -7 -51 -12 -87 -12 -55 0 -68 4 -91 26 -23 22 -31 25 -58 17 -18 -5 -33 -6 -35 -2 -5 13 -58 23 -58 11z"></path><path id="p10Z7Ms2aU" d="M2289 1576 c-5 -4 -117 -13 -282 -22 -67 -4 -124 -10 -127 -13 -7 -9 -71 -32 -99 -36 -35 -5 -85 -27 -94 -42 -4 -7 -19 -13 -32 -13 -16 0 -44 -18 -77 -50 -31 -30 -61 -50 -75 -50 -13 0 -23 -6 -23 -14 0 -8 -6 -16 -12 -18 -8 -3 -13 -26 -14 -64 0 -33 -3 -65 -7 -71 -4 -6 1 -18 11 -25 21 -15 42 -45 24 -34 -8 4 -10 2 -6 -8 10 -27 80 -46 172 -46 48 0 92 4 98 8 5 4 16 23 23 42 8 19 22 43 33 52 10 9 21 27 23 40 3 13 15 31 27 42 13 10 23 24 23 30 0 21 73 86 96 86 16 0 19 4 15 17 -7 18 9 32 39 33 24 1 71 37 61 48 -4 4 -16 -4 -26 -18 -11 -14 -20 -20 -20 -13 0 15 39 53 55 53 6 0 30 9 53 20 22 11 54 20 69 20 15 0 37 7 47 15 11 8 30 15 44 15 13 0 20 4 17 10 -6 10 -28 14 -36 6z"></path><path id="pM0Mp6lbl" d="M1216 979 c3 -5 1 -9 -3 -9 -5 0 -17 -14 -28 -32 -16 -28 -19 -30 -25 -13 -6 18 -9 18 -32 -8 -14 -15 -36 -27 -49 -27 -35 -1 -59 -23 -59 -55 0 -20 -4 -26 -14 -22 -10 4 -13 1 -10 -7 3 -8 1 -17 -5 -21 -6 -3 -11 1 -11 9 0 9 -4 16 -10 16 -5 0 -10 -19 -10 -42 0 -23 -3 -38 -7 -35 -3 4 -12 2 -19 -4 -8 -7 -14 -7 -19 1 -12 19 -26 11 -15 -10 9 -17 8 -19 -7 -13 -16 6 -16 5 -4 -10 7 -9 17 -14 22 -11 5 3 6 -2 3 -11 -4 -10 5 -26 25 -45 17 -17 28 -30 24 -30 -3 0 10 -16 30 -35 20 -19 41 -35 47 -35 6 0 9 -4 6 -9 -9 -15 21 -21 102 -21 52 -1 83 -5 96 -15 11 -8 38 -15 60 -14 23 0 35 3 29 6 -7 2 -13 15 -13 28 0 13 -4 27 -10 30 -5 3 -10 30 -10 60 0 30 5 57 10 60 6 3 10 20 10 36 0 33 23 58 76 85 17 8 36 26 42 39 7 15 20 25 32 25 12 0 31 11 44 25 16 17 34 25 57 25 26 0 30 3 19 10 -21 14 3 28 38 22 23 -4 25 -2 14 9 -7 8 -16 14 -20 15 -124 8 -211 18 -267 29 -79 16 -148 18 -139 4z"></path><path id="pYdnUto8v" d="M1160 375 c5 -6 6 -16 2 -20 -4 -5 -2 -5 5 -1 6 3 17 -2 23 -11 10 -15 11 -14 7 9 -2 15 -1 25 3 23 4 -2 27 0 51 4 41 9 39 9 -28 9 -55 -1 -71 -4 -63 -13z"></path><path id="ppiTYYXP4" d="M1231 208 c-1 -9 3 -28 9 -42 12 -32 34 -36 25 -5 -5 15 -4 19 4 15 6 -4 11 -2 11 4 0 7 -7 9 -15 6 -10 -4 -19 2 -25 17 -6 16 -9 17 -9 5z"></path></g></g><g id="l5CAaptUXSto6jHQDK2ZlbU" fill="rgb(144,93,241)" style="transform: none;"><g style="transform: none;"><path id="pVzlSoBBY" d="M2665 3857 c53 -98 97 -204 113 -268 6 -26 14 -53 18 -62 4 -10 -19 -41 -67 -91 l-72 -76 109 0 c82 -1 123 -6 164 -20 72 -25 80 -25 80 5 0 16 -6 25 -15 25 -9 0 -15 10 -15 26 l0 26 30 -32 c17 -18 30 -42 30 -54 0 -17 11 -25 59 -40 74 -24 87 -17 59 32 -12 20 -28 51 -36 67 -14 26 -58 91 -72 105 -3 3 -17 23 -31 45 -14 22 -46 63 -69 90 -85 98 -303 305 -322 305 -4 0 13 -37 37 -83z"></path><path id="pdgPWjFCN" d="M2660 3267 c8 -8 48 -42 89 -75 71 -58 75 -60 98 -45 14 10 23 25 23 42 0 31 -30 47 -100 55 -25 3 -63 12 -85 21 -34 14 -38 14 -25 2z"></path><path id="pIONufcz0" d="M2892 3058 c46 -61 58 -94 58 -163 0 -60 2 -65 21 -65 21 0 21 4 17 83 -6 109 -36 170 -87 175 l-35 4 26 -34z"></path><path id="pANkbRILV" d="M2947 2798 c-3 -13 -9 -47 -13 -75 -6 -49 -5 -53 13 -53 17 0 21 9 27 53 9 78 7 97 -8 97 -8 0 -16 -10 -19 -22z"></path><path id="pK0uWGz4U" d="M2927 2628 c-6 -23 8 -58 23 -58 6 0 10 18 10 40 0 44 -23 57 -33 18z"></path><path id="pihwdwiMJ" d="M3115 1802 c-5 -24 -10 -28 -34 -24 -16 2 -32 -1 -36 -8 -5 -8 2 -11 24 -9 21 3 35 -2 44 -15 21 -28 37 -11 37 40 0 51 -24 62 -35 16z"></path><path id="p11wwtz5fI" d="M2667 1583 c-20 -2 -35 -8 -32 -14 4 -5 -5 -9 -18 -9 -14 0 -30 -7 -37 -15 -7 -8 -19 -15 -26 -15 -8 0 -14 -4 -14 -8 0 -5 -27 -20 -61 -33 -41 -16 -65 -32 -75 -50 -7 -15 -20 -29 -29 -32 -8 -4 -15 -13 -15 -22 0 -8 -6 -15 -12 -15 -7 -1 -31 -21 -53 -46 -22 -24 -52 -58 -67 -73 -16 -16 -28 -34 -28 -41 0 -7 -14 -25 -31 -41 -17 -16 -28 -33 -25 -38 3 -5 -1 -14 -9 -21 -40 -33 -9 -48 113 -54 81 -4 98 -19 57 -52 -48 -40 -84 -50 -186 -57 -94 -5 -139 -19 -139 -44 0 -7 -32 -27 -70 -45 -39 -18 -73 -41 -76 -50 -3 -10 -9 -18 -14 -18 -14 0 -148 -138 -155 -160 -3 -11 -11 -20 -16 -20 -5 0 -9 -7 -9 -15 0 -7 -6 -18 -14 -22 -16 -9 -48 -92 -40 -105 3 -4 20 -8 38 -8 19 0 44 -9 57 -19 l24 -20 -37 -15 c-21 -9 -56 -16 -78 -16 -51 0 -110 -24 -110 -44 0 -11 -10 -16 -30 -16 -19 0 -34 -7 -42 -20 -7 -11 -18 -20 -25 -20 -7 0 -18 -9 -25 -20 -7 -11 -23 -20 -35 -20 -29 0 -44 -47 -20 -64 11 -9 12 -17 6 -29 -11 -18 5 -25 16 -7 3 6 11 10 16 10 6 0 7 -4 4 -10 -3 -5 -1 -10 4 -10 6 0 10 -3 10 -8 -4 -24 4 -32 34 -32 17 0 46 -9 62 -20 21 -14 48 -20 90 -21 33 0 85 -4 115 -8 54 -8 90 1 90 23 0 5 10 18 23 30 12 12 40 44 62 70 44 54 86 96 96 96 3 0 14 15 23 33 10 17 36 46 58 62 55 41 124 113 213 220 22 27 47 55 56 63 18 15 57 54 89 88 11 12 20 24 20 28 0 16 297 316 313 316 7 0 26 14 42 30 16 17 34 30 40 30 23 0 38 56 46 165 9 134 0 193 -38 232 -28 28 -70 54 -82 51 -3 -1 -23 -3 -44 -5z"></path><path id="pnKPCILdz" d="M3050 1305 c0 -24 -5 -35 -15 -35 -10 0 -15 -11 -15 -35 0 -33 2 -35 35 -35 32 0 35 2 35 30 0 20 5 30 15 30 11 0 15 11 15 40 0 39 -1 40 -35 40 -33 0 -35 -2 -35 -35z"></path><path id="pp71zqrC5" d="M1231 214 c-1 -6 4 -25 10 -43 12 -34 34 -44 24 -10 -5 15 -4 19 4 15 6 -4 11 -14 11 -23 0 -9 3 -14 6 -10 12 11 -8 49 -22 43 -9 -4 -18 3 -24 17 -5 12 -9 17 -9 11z"></path></g></g><g id="l1KnlWcuuerUtHcKYewgzXv" fill="rgb(163,77,243)" style="transform: none;"><g style="transform: none;"><path id="pdqxxmr87" d="M2630 3935 c0 -6 12 -28 26 -50 24 -38 25 -39 19 -10 -6 28 -45 80 -45 60z"></path><path id="pbAefqC0q" d="M2801 3521 c-1 -8 -12 -29 -26 -46 -13 -18 -22 -35 -20 -39 3 -3 2 -4 -2 -1 -7 6 -63 -44 -63 -57 0 -15 19 -8 23 10 4 16 5 16 6 0 1 -23 15 -23 32 -1 8 10 9 14 2 10 -6 -4 -14 -3 -18 2 -3 6 5 8 19 5 27 -5 46 24 24 37 -10 6 -9 12 6 26 18 17 18 17 13 1 -7 -19 1 -22 27 -12 9 3 16 14 16 23 -1 13 -3 13 -17 -4 -13 -16 -15 -17 -10 -3 4 10 2 28 -3 40 -5 13 -9 17 -9 9z"></path><path id="pCTTMXXYc" d="M2885 3500 c3 -5 13 -10 21 -10 8 0 14 5 14 10 0 6 -9 10 -21 10 -11 0 -17 -4 -14 -10z"></path><path id="pFFeK6ofD" d="M2952 3445 c-6 -17 -11 -23 -11 -12 -1 9 -5 17 -11 17 -12 0 -14 -36 -2 -43 4 -2 1 -2 -6 0 -8 2 -16 -6 -19 -17 -3 -11 -9 -20 -14 -20 -5 0 -9 -4 -9 -9 0 -9 63 -26 87 -24 7 0 11 -2 8 -6 -2 -4 22 -12 54 -17 57 -9 59 -9 51 11 -7 18 -4 21 12 21 12 -1 23 5 25 12 3 6 -3 12 -12 12 -9 0 -34 18 -55 40 -21 22 -47 40 -58 40 -11 0 -22 6 -24 13 -3 6 -10 -1 -16 -18z"></path><path id="p1Gvny5d1m" d="M3091 3406 c-9 -11 -8 -15 5 -20 22 -8 24 -8 24 8 0 21 -16 28 -29 12z"></path><path id="pRb3wUlB3" d="M2760 3239 c0 -4 8 -10 18 -12 13 -4 11 -5 -5 -6 -29 -1 -39 2 -35 12 1 5 -3 5 -9 2 -7 -5 -4 -14 10 -28 16 -17 23 -19 33 -9 7 7 17 12 23 12 5 0 2 -5 -9 -11 -17 -10 -11 -19 57 -88 117 -119 126 -146 102 -334 -23 -184 -21 -195 39 -234 111 -72 188 -175 200 -268 6 -45 -2 -155 -24 -343 -5 -41 -15 -81 -23 -90 -22 -25 -29 -93 -12 -116 26 -35 -3 -131 -92 -311 -36 -71 -69 -132 -72 -135 -4 -3 -13 -20 -20 -37 -8 -18 -17 -33 -21 -33 -4 0 -11 -10 -14 -22 -10 -37 -72 -99 -91 -92 -17 7 -17 9 -3 89 2 12 -3 21 -14 23 -13 2 -18 -3 -18 -17 0 -13 -6 -21 -17 -21 -9 0 -32 -14 -50 -32 -18 -18 -33 -27 -33 -20 0 7 -53 -42 -117 -108 -161 -164 -203 -208 -203 -216 0 -4 -9 -16 -20 -28 -32 -34 -71 -73 -89 -88 -9 -8 -34 -36 -56 -63 -89 -107 -158 -179 -213 -220 -22 -16 -48 -45 -58 -62 -9 -18 -20 -33 -23 -33 -10 0 -52 -42 -96 -96 -22 -26 -50 -58 -63 -70 -12 -12 -22 -24 -22 -28 0 -16 -42 -45 -72 -49 -31 -4 -30 -4 8 -5 34 -2 98 -30 69 -32 -5 0 -3 -5 5 -10 8 -5 86 -10 172 -10 132 0 159 3 173 17 12 11 46 19 113 25 176 16 382 68 382 96 0 16 -54 16 -88 -2 -15 -7 -50 -16 -78 -20 -51 -6 -51 -6 -46 19 2 14 12 31 21 38 9 7 37 37 61 67 25 30 48 56 53 58 4 2 7 9 7 15 1 14 49 68 211 234 65 67 119 129 119 137 0 8 4 16 9 18 27 10 180 288 239 433 85 209 86 213 88 345 1 69 5 148 9 177 4 31 1 68 -6 92 -11 37 -10 43 5 54 14 10 20 37 27 128 5 62 14 144 19 182 17 117 6 260 -23 297 -7 8 -21 31 -31 50 -11 19 -25 38 -32 42 -14 9 -54 83 -54 102 0 8 -13 19 -30 26 -25 11 -29 16 -23 39 9 36 44 80 66 80 31 1 57 21 57 42 0 12 8 23 20 26 15 4 20 14 20 39 0 30 3 33 33 36 54 5 107 -3 107 -17 0 -8 19 -14 53 -17 34 -3 61 -11 75 -24 12 -10 41 -35 65 -54 44 -36 156 -169 169 -202 6 -15 2 -18 -27 -18 -69 0 -82 -33 -90 -226 -3 -82 -12 -201 -20 -264 -8 -63 -19 -153 -25 -200 -12 -105 -35 -235 -54 -315 -8 -33 -24 -100 -36 -150 -11 -49 -29 -124 -39 -165 -62 -244 -71 -300 -51 -300 6 0 10 -11 10 -25 0 -21 5 -25 30 -25 28 0 29 2 18 20 -7 11 -17 20 -22 20 -11 0 -2 75 23 175 11 44 25 103 31 130 6 28 20 82 29 120 19 73 49 206 75 335 28 131 57 389 66 575 5 99 13 192 19 207 21 57 80 57 132 2 55 -58 53 0 -3 98 -23 40 -46 78 -50 83 -4 6 -29 37 -55 70 -57 72 -141 155 -200 197 -24 17 -43 35 -43 40 0 4 -5 8 -10 8 -6 0 -20 9 -32 20 -12 11 -28 20 -35 20 -7 0 -13 4 -13 9 0 5 -19 18 -42 30 -24 12 -50 26 -58 31 -8 6 -26 14 -40 20 -14 5 -32 14 -40 18 -46 26 -110 52 -142 58 -21 3 -42 12 -49 20 -6 8 -25 14 -41 14 -17 0 -44 6 -61 14 -39 18 -87 26 -87 15z"></path><path id="pOKtvG0DA" d="M3430 870 c0 -17 7 -20 40 -20 33 0 40 3 40 20 0 17 -7 20 -40 20 -33 0 -40 -3 -40 -20z"></path><path id="pyFbAJkH" d="M3123 763 c-27 -4 -33 -9 -33 -28 0 -22 3 -23 28 -15 15 5 44 11 65 15 23 4 37 11 37 20 0 15 -24 17 -97 8z"></path><path id="pJCnUaq5e" d="M2943 718 l-73 -10 0 -38 c0 -34 3 -38 31 -44 52 -10 79 -7 79 9 0 8 -14 17 -35 21 -49 9 -36 20 32 29 84 10 103 15 103 31 0 16 -27 16 -137 2z"></path><path id="pj4gHAmno" d="M3180 675 c-8 -2 -32 -6 -52 -10 -24 -4 -38 -11 -38 -20 0 -17 11 -18 88 -9 42 6 52 10 52 25 0 18 -12 21 -50 14z"></path><path id="prNNVnSUu" d="M2770 204 c0 -21 3 -25 18 -19 9 4 25 10 35 12 32 10 19 33 -18 33 -31 0 -35 -3 -35 -26z"></path><path id="prbHVzaxQ" d="M2590 150 c0 -22 20 -26 51 -10 30 16 23 30 -16 30 -28 0 -35 -4 -35 -20z"></path></g></g><g id="litjPC7MWZPAwmpZenllTZ" fill="rgb(177,66,243)" style="transform: none;"><g style="transform: none;"><path id="pAb6LSrxG" d="M3173 2921 c-59 -7 -66 -12 -57 -35 4 -11 14 -16 25 -13 11 3 19 0 19 -8 0 -7 -9 -15 -20 -18 -12 -3 -20 -14 -20 -26 0 -11 -9 -25 -20 -31 -17 -9 -20 -8 -20 7 -1 13 -12 5 -40 -27 -21 -25 -41 -52 -43 -60 -2 -8 -3 1 -1 20 l3 35 -14 -40 -13 -40 -2 85 c-1 68 -4 79 -11 55 -5 -16 -7 -50 -4 -75 3 -31 2 -37 -3 -20 -7 20 -10 13 -15 -39 -7 -66 2 -105 14 -61 6 22 7 21 9 -10 l2 -35 14 35 c13 31 14 32 10 7 -2 -15 1 -30 5 -33 5 -3 9 -1 9 5 0 6 7 8 15 5 8 -4 15 -12 15 -20 0 -8 5 -14 11 -14 5 0 7 -4 4 -10 -3 -5 -1 -10 5 -10 6 0 9 -4 6 -9 -3 -5 1 -11 9 -15 8 -3 15 -12 15 -20 0 -8 9 -21 19 -28 10 -7 29 -32 41 -56 12 -23 26 -44 30 -47 19 -12 32 -146 21 -223 -5 -43 -14 -129 -20 -191 -6 -81 -14 -118 -24 -126 -23 -16 -29 -67 -14 -104 10 -22 12 -46 6 -74 -4 -23 -5 -45 -2 -50 2 -4 -1 -15 -8 -23 -9 -12 -9 -26 1 -69 19 -77 5 -134 -82 -350 -59 -145 -212 -423 -239 -433 -5 -2 -9 -10 -9 -18 0 -8 -54 -70 -119 -137 -162 -166 -210 -220 -211 -234 0 -6 -3 -13 -7 -15 -5 -2 -28 -28 -53 -58 -24 -30 -52 -61 -62 -68 -9 -7 -18 -22 -20 -35 -2 -13 -11 -23 -23 -25 -11 -1 -29 -16 -40 -32 -13 -19 -29 -30 -45 -31 -24 -1 -23 -1 5 -10 19 -6 47 -6 75 0 25 6 77 13 115 16 39 4 78 11 88 17 17 9 100 33 222 64 33 9 64 19 70 24 5 4 26 11 45 15 118 23 277 88 323 133 53 52 74 88 101 179 34 114 38 153 19 160 -8 3 -77 -2 -154 -12 -131 -16 -229 -15 -229 4 0 5 38 13 85 19 46 6 97 18 112 25 16 8 48 17 73 21 25 3 65 13 90 20 25 8 79 24 120 36 215 64 250 77 250 90 0 7 -35 10 -101 9 -94 -2 -102 -1 -125 22 -36 37 -35 58 26 299 11 41 29 116 40 165 12 50 28 117 36 150 19 80 42 210 54 315 6 47 17 137 25 200 8 63 17 182 20 264 7 153 12 181 40 209 25 26 56 20 105 -19 38 -30 46 -33 49 -18 1 9 -4 21 -13 26 -9 5 -16 17 -16 28 0 10 -7 26 -15 34 -9 9 -21 26 -28 39 -23 43 -131 172 -174 207 -24 19 -52 42 -62 52 -26 22 -60 32 -100 29 -20 -2 -31 1 -27 7 3 6 2 13 -4 17 -15 9 -130 13 -187 6z m247 -751 c0 -5 7 -10 15 -10 8 0 15 -4 15 -9 0 -5 14 -11 30 -14 l30 -6 0 -143 c-1 -110 -4 -148 -15 -162 -10 -13 -15 -43 -15 -87 0 -39 -8 -92 -20 -129 -11 -34 -20 -77 -20 -94 0 -17 -9 -57 -20 -89 -11 -31 -20 -70 -20 -87 0 -17 -6 -45 -14 -63 -7 -18 -16 -55 -20 -82 -4 -28 -17 -78 -28 -112 -27 -81 -22 -173 10 -205 l22 -22 -53 -23 c-28 -12 -65 -22 -82 -23 -16 0 -43 -7 -60 -16 -16 -9 -57 -18 -90 -21 -33 -3 -76 -14 -95 -24 -31 -17 -110 -27 -110 -14 0 2 16 30 36 60 70 111 144 269 233 501 l61 161 0 162 c0 157 1 163 24 184 15 15 25 37 28 69 3 26 12 54 21 62 8 9 18 29 22 46 5 21 13 30 26 30 15 0 19 7 19 39 0 29 -5 41 -17 44 -13 4 -12 5 5 6 12 0 26 9 29 19 17 45 53 81 53 52z m-200 -1576 c-6 -14 -10 -35 -10 -47 0 -70 -104 -199 -174 -218 -22 -6 -49 -17 -60 -25 -11 -8 -34 -14 -51 -14 -16 -1 -48 -9 -70 -20 -22 -11 -51 -19 -65 -20 -14 0 -41 -8 -60 -18 -19 -11 -56 -22 -83 -25 -26 -4 -57 -13 -70 -21 -12 -7 -43 -17 -69 -20 -26 -4 -50 -11 -53 -17 -11 -17 -25 -9 -25 15 0 50 124 212 280 365 l75 74 165 -1 c131 -2 258 6 277 17 1 0 -2 -11 -7 -25z"></path><path id="p50KAgEqc" d="M2986 2815 c-3 -9 -6 -24 -5 -33 0 -9 5 -4 10 12 9 32 6 48 -5 21z"></path></g></g><g id="l2Ep1ywc7k4M6pqRTunzXBP" fill="rgb(193,52,246)" style="transform: none;"><g style="transform: none;"><path id="p2uIm47O8" d="M3400 2245 c0 -13 -8 -29 -19 -34 -10 -6 -27 -27 -37 -48 -17 -37 -18 -37 -25 -13 -6 24 -7 23 -27 -21 -12 -25 -31 -54 -43 -65 -22 -19 -22 -19 -11 3 9 17 9 22 -4 27 -9 3 -18 6 -20 6 -2 0 -4 -35 -5 -77 0 -43 -4 -99 -8 -125 -4 -27 -4 -48 1 -48 4 0 8 8 8 18 0 14 2 15 9 3 7 -11 3 -21 -15 -38 -29 -27 -26 -4 -28 -203 l-2 -165 -61 -155 c-144 -371 -260 -575 -413 -730 -201 -202 -300 -333 -300 -397 0 -20 -8 -43 -21 -56 l-20 -22 46 -3 c30 -2 55 2 70 12 13 9 43 18 67 22 24 3 53 13 65 20 13 8 44 17 70 21 27 3 64 14 83 25 19 10 46 18 60 18 14 1 43 9 65 20 22 11 54 19 70 20 17 0 40 6 51 14 11 8 38 19 60 25 71 19 174 148 174 219 0 12 7 39 15 59 8 19 15 47 15 60 0 23 -3 25 -32 19 -126 -27 -331 -35 -401 -15 -37 10 -38 11 -24 32 12 19 26 23 103 27 57 4 98 11 114 22 14 8 52 18 85 21 33 3 74 12 90 21 17 9 44 16 60 16 17 0 50 9 74 20 24 11 57 20 75 20 17 1 49 9 71 20 22 11 50 19 63 20 12 0 22 4 22 8 0 5 -33 7 -73 4 -68 -4 -76 -2 -105 23 -43 36 -50 80 -24 158 11 34 24 84 28 112 4 27 13 64 20 82 8 18 14 46 14 63 0 17 9 56 20 87 11 32 20 72 20 89 0 17 9 58 19 91 10 33 20 91 22 129 1 38 8 78 15 90 22 36 23 380 2 369 -7 -4 -4 2 8 12 l21 18 -28 28 c-15 15 -33 27 -38 27 -6 0 -11 5 -11 10 0 6 -18 10 -40 10 -36 0 -40 -3 -40 -25z m95 -73 c-4 -4 -10 -1 -12 6 -3 6 -12 12 -21 13 -13 0 -13 2 3 8 21 9 44 -14 30 -27z m-236 -183 c11 -4 11 -8 -3 -21 -9 -9 -16 -21 -16 -26 0 -5 -7 -15 -15 -22 -10 -9 -15 -9 -15 -1 0 6 5 11 10 11 6 0 10 19 10 43 0 23 4 37 8 31 4 -6 13 -13 21 -15z"></path></g></g></svg>