<svg class="img-fluid" id="outputsvg" xmlns="http://www.w3.org/2000/svg" style="transform: none; transform-origin: 50% 50%; cursor: move;" width="366" height="468" viewBox="0 0 3660 4680"><g id="l6B4qhXCDfTzrGcYrlEca5C" fill="rgb(255,53,53)" style="transform: none;"><g><path id="pPTrKD6x" d="M1130 4677 c0 -3 34 -94 76 -203 147 -389 287 -630 532 -918 156 -183 223 -291 202 -326 -22 -36 -132 17 -325 159 -304 222 -448 243 -529 78 -39 -78 -54 -179 -61 -402 -8 -249 -18 -323 -55 -403 -69 -148 -297 -302 -639 -431 -147 -56 -204 -86 -261 -137 -76 -69 -78 -138 -6 -208 83 -80 190 -125 510 -210 323 -87 486 -159 646 -285 180 -143 299 -316 572 -836 194 -368 304 -520 394 -544 40 -10 111 3 142 26 61 46 94 169 112 416 5 76 12 502 16 947 4 446 8 810 10 810 1 0 139 -65 306 -144 340 -161 466 -212 617 -250 122 -31 132 -31 174 -10 198 100 65 255 -518 604 -328 198 -508 322 -612 426 -51 51 -53 55 -53 108 0 38 5 60 17 71 30 30 126 14 372 -64 123 -39 252 -75 286 -80 113 -16 199 17 246 93 65 106 -19 168 -535 400 -200 91 -269 131 -323 189 -50 54 -60 95 -67 277 -12 271 -61 495 -151 691 -31 68 -61 128 -65 132 -11 12 -108 -249 -140 -378 -15 -60 -31 -150 -35 -200 -9 -107 -25 -155 -54 -155 -26 0 -158 126 -500 480 -226 233 -301 303 -301 277z m466 -1892 c79 -33 273 -212 317 -293 57 -105 60 -134 64 -662 l5 -485 -209 205 c-265 262 -417 376 -558 420 -49 15 -75 37 -75 63 0 28 27 69 140 209 130 160 197 289 212 403 14 114 16 122 34 139 19 20 26 20 70 1z"></path></g></g></svg>